<svg xmlns="http://www.w3.org/2000/svg" xmlns:xlink="http://www.w3.org/1999/xlink" width="96" zoomAndPan="magnify" viewBox="0 0 72 72" height="96" preserveAspectRatio="xMidYMid meet" version="1.0"><defs><clipPath id="e2f89ef3d4"><path d="M 41.402344 25.847656 L 70.953125 25.847656 L 70.953125 34.109375 L 41.402344 34.109375 Z M 41.402344 25.847656 " clip-rule="nonzero"/></clipPath><clipPath id="7c5ca62e31"><path d="M 29.9375 35.621094 L 70.277344 35.621094 L 70.277344 56.226562 L 29.9375 56.226562 Z M 29.9375 35.621094 " clip-rule="nonzero"/></clipPath></defs><path fill="#5352ed" d="M 72 36 C 72 37.179688 71.941406 38.355469 71.828125 39.527344 C 71.710938 40.703125 71.539062 41.867188 71.308594 43.023438 C 71.078125 44.179688 70.792969 45.320312 70.449219 46.449219 C 70.109375 47.578125 69.710938 48.6875 69.257812 49.777344 C 68.808594 50.867188 68.304688 51.929688 67.75 52.96875 C 67.191406 54.011719 66.589844 55.019531 65.933594 56 C 65.277344 56.980469 64.578125 57.925781 63.828125 58.839844 C 63.082031 59.75 62.289062 60.621094 61.457031 61.457031 C 60.621094 62.289062 59.75 63.082031 58.839844 63.828125 C 57.925781 64.578125 56.980469 65.277344 56 65.933594 C 55.019531 66.589844 54.011719 67.195312 52.96875 67.75 C 51.929688 68.304688 50.867188 68.808594 49.777344 69.257812 C 48.6875 69.710938 47.578125 70.109375 46.449219 70.449219 C 45.320312 70.792969 44.179688 71.078125 43.023438 71.308594 C 41.867188 71.539062 40.703125 71.710938 39.527344 71.828125 C 38.355469 71.941406 37.179688 72 36 72 C 34.820312 72 33.644531 71.941406 32.472656 71.828125 C 31.296875 71.710938 30.132812 71.539062 28.976562 71.308594 C 27.820312 71.078125 26.679688 70.792969 25.550781 70.449219 C 24.421875 70.109375 23.3125 69.710938 22.222656 69.257812 C 21.132812 68.808594 20.070312 68.304688 19.03125 67.75 C 17.988281 67.195312 16.980469 66.589844 16 65.933594 C 15.019531 65.277344 14.074219 64.578125 13.160156 63.828125 C 12.25 63.082031 11.378906 62.289062 10.542969 61.457031 C 9.710938 60.621094 8.917969 59.75 8.171875 58.839844 C 7.421875 57.925781 6.722656 56.980469 6.066406 56 C 5.410156 55.019531 4.804688 54.011719 4.25 52.96875 C 3.695312 51.929688 3.191406 50.867188 2.742188 49.777344 C 2.289062 48.6875 1.890625 47.578125 1.550781 46.449219 C 1.207031 45.320312 0.921875 44.179688 0.691406 43.023438 C 0.460938 41.867188 0.289062 40.703125 0.171875 39.527344 C 0.0585938 38.355469 0 37.179688 0 36 C 0 34.820312 0.0585938 33.644531 0.171875 32.472656 C 0.289062 31.296875 0.460938 30.132812 0.691406 28.976562 C 0.921875 27.820312 1.207031 26.679688 1.550781 25.550781 C 1.890625 24.421875 2.289062 23.3125 2.742188 22.222656 C 3.191406 21.132812 3.695312 20.070312 4.25 19.03125 C 4.804688 17.988281 5.410156 16.980469 6.066406 16 C 6.722656 15.019531 7.421875 14.074219 8.171875 13.160156 C 8.917969 12.25 9.710938 11.378906 10.542969 10.542969 C 11.378906 9.710938 12.25 8.917969 13.160156 8.171875 C 14.074219 7.421875 15.019531 6.722656 16 6.066406 C 16.980469 5.410156 17.988281 4.804688 19.03125 4.25 C 20.070312 3.695312 21.132812 3.191406 22.222656 2.742188 C 23.3125 2.289062 24.421875 1.890625 25.550781 1.550781 C 26.679688 1.207031 27.820312 0.921875 28.976562 0.691406 C 30.132812 0.460938 31.296875 0.289062 32.472656 0.171875 C 33.644531 0.0585938 34.820312 0 36 0 C 37.179688 0 38.355469 0.0585938 39.527344 0.171875 C 40.703125 0.289062 41.867188 0.460938 43.023438 0.691406 C 44.179688 0.921875 45.320312 1.207031 46.449219 1.550781 C 47.578125 1.890625 48.6875 2.289062 49.777344 2.742188 C 50.867188 3.191406 51.929688 3.695312 52.96875 4.25 C 54.011719 4.804688 55.019531 5.410156 56 6.066406 C 56.980469 6.722656 57.925781 7.421875 58.839844 8.171875 C 59.75 8.917969 60.621094 9.710938 61.457031 10.542969 C 62.289062 11.378906 63.082031 12.25 63.828125 13.160156 C 64.578125 14.074219 65.277344 15.019531 65.933594 16 C 66.589844 16.980469 67.195312 17.988281 67.75 19.03125 C 68.304688 20.070312 68.808594 21.132812 69.257812 22.222656 C 69.710938 23.3125 70.109375 24.421875 70.449219 25.550781 C 70.792969 26.679688 71.078125 27.820312 71.308594 28.976562 C 71.539062 30.132812 71.710938 31.296875 71.828125 32.472656 C 71.941406 33.644531 72 34.820312 72 36 Z M 72 36 " fill-opacity="1" fill-rule="nonzero"/><path fill="#ffffff" d="M 16.953125 46.066406 C 16.515625 46.210938 16.0625 46.28125 15.59375 46.25 C 15.226562 46.226562 14.875 46.136719 14.542969 45.988281 C 13.886719 45.6875 13.390625 45.175781 13.035156 44.585938 C 12.90625 44.53125 12.78125 44.480469 12.664062 44.433594 C 13.027344 45.46875 13.703125 46.472656 14.761719 46.957031 C 15.117188 47.117188 15.496094 47.210938 15.890625 47.238281 C 16.78125 47.296875 17.632812 47.011719 18.386719 46.5625 C 17.894531 46.398438 17.414062 46.230469 16.953125 46.066406 " fill-opacity="1" fill-rule="evenodd"/><path fill="#ffffff" d="M 44.785156 35.179688 C 49.09375 34.617188 50.238281 39.398438 49.261719 43.089844 C 52.289062 40.945312 57.261719 37.644531 62.324219 36.335938 C 62.410156 35.441406 62.59375 33.960938 63.105469 32.570312 C 63.847656 30.550781 65.414062 29.011719 67.621094 30.46875 C 65.433594 29.4375 64.257812 30.707031 63.53125 32.835938 C 63.054688 34.226562 62.886719 35.683594 62.941406 36.59375 C 57.035156 39.046875 51.238281 42.65625 47.019531 46.609375 C 49.246094 41.5 49.414062 36.363281 44.785156 35.179688 " fill-opacity="1" fill-rule="evenodd"/><path fill="#ffffff" d="M 44.785156 35.179688 C 49.09375 34.617188 50.238281 39.398438 49.261719 43.089844 C 52.613281 40.710938 56.90625 37.707031 62.941406 36.59375 C 56.367188 39.128906 51.546875 42.363281 47.019531 46.609375 C 49.246094 41.5 49.414062 36.363281 44.785156 35.179688 " fill-opacity="1" fill-rule="evenodd"/><path fill="#ffffff" d="M 38.792969 32.824219 C 31.84375 38.261719 29.996094 37.53125 21.449219 36.15625 L 11.582031 34.332031 L 21.59375 35.363281 C 29.777344 36.597656 31.410156 37.371094 38.792969 32.824219 " fill-opacity="1" fill-rule="evenodd"/><path fill="#ffffff" d="M 34.589844 33.042969 C 34.285156 33.699219 33.730469 34.167969 33.0625 34.585938 C 32.5625 34.894531 31.917969 35.144531 30.929688 35.253906 C 27.222656 35.652344 25.386719 34.652344 23.042969 34.375 C 25.371094 34.179688 28.277344 35.199219 30.492188 34.789062 C 30.964844 34.703125 31.359375 34.578125 31.636719 34.40625 C 32.234375 34.035156 32.726562 33.617188 32.996094 33.035156 L 33.019531 32.980469 C 32.925781 32.964844 32.828125 32.949219 32.726562 32.933594 C 29.859375 32.46875 27.660156 32.410156 26.125 32.710938 C 27.699219 32.273438 30.042969 32.246094 33.152344 32.679688 C 33.210938 32.542969 33.253906 32.417969 33.285156 32.308594 C 33.03125 32.160156 32.585938 32.074219 31.910156 31.992188 C 29.054688 31.640625 26.875 31.667969 25.367188 32.027344 C 27.066406 31.480469 29.707031 31.390625 33.296875 31.832031 L 33.335938 31.835938 C 33.261719 31.421875 32.746094 31.304688 31.621094 31.214844 C 28.664062 30.980469 26.417969 31.101562 24.886719 31.53125 C 26.605469 30.902344 29.324219 30.695312 33.042969 30.992188 C 35.105469 31.15625 35.351562 31.402344 34.589844 33.042969 " fill-opacity="1" fill-rule="evenodd"/><path fill="#ffffff" d="M 65.003906 27.523438 C 58.527344 26.066406 47.148438 26.261719 41.453125 27.242188 L 41.519531 26.351562 C 47.199219 25.582031 58.542969 25.816406 65.003906 27.523438 " fill-opacity="1" fill-rule="evenodd"/><path fill="#ffffff" d="M 42.625 27.0625 C 42.207031 27.09375 41.871094 27.210938 41.453125 27.242188 C 38.601562 23.878906 40.972656 19.667969 47.0625 19.402344 C 53.457031 19.121094 59.425781 23.160156 62.917969 26.941406 C 58.496094 23.527344 54.660156 20.054688 47.925781 20.398438 C 43.238281 20.640625 39.75 23.3125 42.625 27.0625 " fill-opacity="1" fill-rule="evenodd"/><path fill="#ffffff" d="M 45.113281 35.71875 C 44.980469 35.710938 44.84375 35.71875 44.710938 35.730469 C 45.007812 35.75 45.292969 35.824219 45.558594 35.953125 C 46.378906 36.359375 46.890625 37.242188 47.160156 38.164062 C 47.34375 38.789062 47.429688 39.464844 47.4375 40.148438 C 47.445312 40.835938 47.375 41.53125 47.246094 42.203125 C 47.085938 43.035156 46.824219 43.878906 46.46875 44.675781 C 46.113281 45.476562 45.65625 46.230469 45.113281 46.882812 C 44.703125 47.375 44.207031 47.832031 43.664062 48.160156 C 43.121094 48.488281 42.527344 48.683594 41.921875 48.644531 C 41.605469 48.625 41.300781 48.539062 41.019531 48.386719 C 40.179688 47.929688 39.675781 46.972656 39.429688 45.988281 C 39.3125 45.523438 39.246094 45.039062 39.222656 44.550781 C 39.207031 45.3125 39.273438 46.074219 39.453125 46.789062 C 39.722656 47.855469 40.261719 48.898438 41.171875 49.390625 C 41.476562 49.554688 41.804688 49.648438 42.148438 49.667969 C 42.804688 49.714844 43.445312 49.503906 44.03125 49.148438 C 44.617188 48.796875 45.148438 48.296875 45.59375 47.765625 C 46.179688 47.058594 46.671875 46.242188 47.054688 45.375 C 47.4375 44.511719 47.714844 43.597656 47.886719 42.699219 C 48.023438 41.976562 48.097656 41.222656 48.085938 40.480469 C 48.074219 39.746094 47.980469 39.019531 47.78125 38.34375 C 47.488281 37.347656 46.933594 36.398438 46.050781 35.960938 C 45.757812 35.816406 45.441406 35.734375 45.113281 35.71875 " fill-opacity="1" fill-rule="evenodd"/><path fill="#ffffff" d="M 45.777344 35.972656 C 45.996094 36.074219 46.195312 36.203125 46.378906 36.355469 C 46.191406 36.996094 46.007812 37.621094 45.828125 38.230469 C 45.5 39.347656 45.183594 40.417969 44.882812 41.453125 C 45.5 41.441406 46.117188 41.433594 46.734375 41.421875 C 47.148438 41.417969 47.5625 41.410156 47.980469 41.402344 C 47.945312 42.023438 47.855469 42.664062 47.710938 43.300781 C 47.246094 43.40625 46.785156 43.507812 46.320312 43.613281 C 46.058594 43.671875 45.792969 43.730469 45.527344 43.789062 C 45.359375 44.394531 44.992188 44.941406 44.542969 45.132812 C 44.554688 45.515625 44.5625 45.890625 44.570312 46.261719 C 44.589844 46.96875 44.609375 47.660156 44.621094 48.332031 C 44.265625 48.5625 43.902344 48.734375 43.539062 48.847656 C 43.4375 48.238281 43.332031 47.609375 43.222656 46.964844 C 43.128906 46.386719 43.027344 45.796875 42.929688 45.1875 C 42.851562 45.167969 42.78125 45.136719 42.714844 45.097656 C 42.277344 45.503906 41.851562 45.90625 41.429688 46.300781 C 40.960938 46.742188 40.5 47.167969 40.046875 47.59375 C 39.8125 47.257812 39.613281 46.871094 39.453125 46.441406 C 39.875 45.910156 40.308594 45.367188 40.75 44.816406 C 41.125 44.34375 41.511719 43.859375 41.90625 43.367188 C 41.882812 44.023438 42.082031 44.566406 42.429688 44.824219 C 41.988281 44.128906 42.066406 43.164062 42.402344 42.390625 C 42.738281 41.617188 43.328125 41.027344 43.925781 41.058594 C 44.167969 41.074219 44.34375 41.199219 44.515625 41.355469 C 44.695312 41.515625 44.875 41.671875 45.050781 41.832031 C 44.8125 41.570312 44.425781 41.253906 44.226562 41.070312 C 44.082031 40.929688 43.90625 40.847656 43.699219 40.835938 C 42.980469 40.796875 42.207031 41.679688 41.972656 42.816406 C 41.96875 42.824219 41.96875 42.835938 41.964844 42.84375 C 41.617188 42.382812 41.265625 41.914062 40.902344 41.4375 C 40.566406 40.988281 40.21875 40.53125 39.871094 40.066406 C 40.136719 39.445312 40.453125 38.863281 40.800781 38.347656 C 41.160156 38.699219 41.523438 39.046875 41.886719 39.398438 C 42.382812 39.878906 42.871094 40.355469 43.351562 40.820312 C 43.714844 39.800781 44.089844 38.742188 44.480469 37.644531 C 44.699219 37.03125 44.921875 36.410156 45.148438 35.769531 C 45.363281 35.808594 45.574219 35.875 45.777344 35.972656 Z M 45.089844 43.882812 C 45.273438 43.421875 45.351562 42.578125 44.925781 42.359375 C 45.171875 42.75 44.84375 43.636719 44.613281 43.988281 C 44.453125 44.238281 44.203125 44.460938 43.914062 44.417969 C 44.03125 44.6875 44.261719 44.765625 44.492188 44.648438 C 44.777344 44.5 44.972656 44.191406 45.089844 43.882812 " fill-opacity="1" fill-rule="evenodd"/><path fill="#ffffff" d="M 66.21875 30.394531 C 66.152344 30.398438 66.085938 30.410156 66.023438 30.425781 C 66.167969 30.417969 66.3125 30.441406 66.449219 30.5 C 66.871094 30.675781 67.167969 31.125 67.351562 31.601562 C 67.59375 32.25 67.660156 33.007812 67.609375 33.714844 C 67.542969 34.589844 67.296875 35.496094 66.855469 36.207031 C 66.527344 36.742188 66.039062 37.234375 65.472656 37.265625 C 65.324219 37.273438 65.175781 37.25 65.035156 37.191406 C 64.613281 37.015625 64.316406 36.566406 64.132812 36.085938 C 64.046875 35.859375 63.984375 35.617188 63.941406 35.371094 C 63.984375 35.757812 64.066406 36.140625 64.199219 36.488281 C 64.394531 37.003906 64.714844 37.484375 65.167969 37.675781 C 65.320312 37.738281 65.476562 37.765625 65.636719 37.753906 C 66.25 37.722656 66.773438 37.195312 67.128906 36.617188 C 67.601562 35.851562 67.867188 34.875 67.9375 33.9375 C 67.992188 33.175781 67.921875 32.359375 67.660156 31.664062 C 67.464844 31.148438 67.144531 30.667969 66.6875 30.476562 C 66.539062 30.414062 66.378906 30.386719 66.21875 30.394531 " fill-opacity="1" fill-rule="evenodd"/><path fill="#ffffff" d="M 66.527344 30.5 C 66.640625 30.542969 66.742188 30.601562 66.839844 30.675781 C 66.785156 31.027344 66.734375 31.375 66.683594 31.710938 C 66.589844 32.320312 66.5 32.902344 66.417969 33.460938 C 66.707031 33.421875 66.996094 33.382812 67.289062 33.34375 C 67.484375 33.316406 67.675781 33.289062 67.871094 33.261719 C 67.886719 33.585938 67.878906 33.921875 67.84375 34.257812 L 67.210938 34.492188 L 66.851562 34.625 C 66.804688 34.945312 66.664062 35.242188 66.46875 35.363281 L 66.542969 35.933594 C 66.589844 36.285156 66.636719 36.625 66.679688 36.957031 C 66.53125 37.089844 66.371094 37.195312 66.210938 37.273438 C 66.128906 36.976562 66.046875 36.671875 65.957031 36.359375 C 65.878906 36.074219 65.800781 35.785156 65.71875 35.484375 C 65.679688 35.476562 65.644531 35.464844 65.613281 35.449219 L 65.085938 36.128906 C 64.894531 36.375 64.707031 36.617188 64.523438 36.855469 C 64.394531 36.703125 64.273438 36.519531 64.171875 36.316406 C 64.335938 36.023438 64.503906 35.726562 64.675781 35.417969 C 64.820312 35.15625 64.972656 34.890625 65.128906 34.613281 C 65.15625 34.953125 65.285156 35.21875 65.460938 35.328125 L 65.457031 35.320312 L 65.449219 35.308594 C 65.003906 34.746094 65.316406 33.34375 65.941406 33.308594 C 66.097656 33.300781 66.210938 33.40625 66.320312 33.492188 L 66.519531 33.648438 C 66.390625 33.523438 66.191406 33.382812 66.085938 33.296875 C 66.007812 33.230469 65.917969 33.199219 65.824219 33.203125 C 65.476562 33.222656 65.164062 33.726562 65.125 34.328125 L 65.125 34.34375 C 64.929688 34.125 64.730469 33.902344 64.53125 33.671875 C 64.339844 33.457031 64.144531 33.238281 63.945312 33.011719 C 64.03125 32.667969 64.144531 32.34375 64.277344 32.046875 L 64.867188 32.546875 C 65.136719 32.773438 65.398438 32.996094 65.65625 33.214844 C 65.765625 32.660156 65.882812 32.078125 66.003906 31.472656 C 66.070312 31.128906 66.140625 30.78125 66.214844 30.421875 C 66.320312 30.433594 66.425781 30.457031 66.527344 30.5 Z M 66.652344 34.699219 C 66.699219 34.46875 66.714844 34.023438 66.488281 33.925781 C 66.648438 34.164062 66.496094 35.054688 66.132812 35.039062 C 66.296875 35.34375 66.570312 35.046875 66.652344 34.699219 " fill-opacity="1" fill-rule="evenodd"/><path fill="#ffffff" d="M 49.175781 37.097656 C 50.402344 38.171875 50.734375 39.6875 50.761719 40.429688 C 51.886719 39.632812 53.710938 38.972656 55.730469 38.601562 C 53.53125 39.449219 51.472656 40.648438 49.957031 42.066406 C 50.207031 40.695312 49.988281 38.089844 49.175781 37.097656 " fill-opacity="1" fill-rule="evenodd"/><g clip-path="url(#e2f89ef3d4)"><path fill="#ffffff" d="M 69.15625 34.054688 C 69.964844 33.019531 70.734375 31.832031 70.46875 30.804688 C 69.859375 28.46875 63.269531 27.429688 61.117188 27.210938 C 54.726562 26.566406 46.0625 26.476562 41.453125 27.242188 L 41.519531 26.351562 C 46.121094 25.734375 54.660156 25.742188 61.125 26.652344 C 63.464844 26.984375 70.5625 28.121094 70.9375 30.835938 C 71.097656 32.003906 70.070312 33.230469 69.15625 34.054688 " fill-opacity="1" fill-rule="evenodd"/></g><path fill="#ffffff" d="M 60.835938 24.902344 C 60.863281 24.695312 60.945312 24.128906 61.015625 23.957031 C 61.089844 23.769531 61.28125 23.660156 61.492188 23.679688 C 62.664062 23.796875 63.683594 24.148438 64.558594 24.71875 C 64.738281 24.832031 64.804688 25.046875 64.726562 25.238281 C 64.550781 25.648438 64.339844 25.976562 64.089844 26.207031 C 64.007812 26.285156 63.910156 26.324219 63.796875 26.332031 C 63.429688 26.355469 63.046875 26.351562 62.652344 26.332031 C 62.878906 26.335938 63.128906 26.308594 63.347656 26.292969 C 63.445312 26.289062 63.527344 26.253906 63.597656 26.1875 C 63.808594 25.992188 63.964844 25.738281 64.113281 25.382812 C 64.183594 25.21875 64.125 25.039062 63.972656 24.941406 C 63.222656 24.453125 62.351562 24.152344 61.351562 24.054688 C 61.214844 24.039062 61.082031 24.058594 61.007812 24.296875 C 60.984375 24.371094 60.941406 24.847656 60.929688 24.972656 C 60.925781 25.050781 60.859375 24.988281 60.835938 24.902344 " fill-opacity="1" fill-rule="evenodd"/><path fill="#ffffff" d="M 60.234375 26.089844 C 60.554688 26.128906 60.875 26.171875 61.195312 26.21875 C 61.210938 26.21875 61.226562 26.222656 61.246094 26.226562 C 57.242188 23.113281 53.730469 20.542969 47.949219 20.839844 C 46.6875 20.90625 45.347656 21.160156 44.21875 21.707031 C 43.820312 21.898438 43.429688 22.132812 43.089844 22.421875 C 43.316406 22.273438 43.554688 22.140625 43.792969 22.023438 C 44.921875 21.480469 46.261719 21.222656 47.523438 21.160156 C 53.023438 20.878906 56.46875 23.1875 60.234375 26.089844 Z M 59.4375 25.984375 C 56.835938 23.835938 54.144531 22.171875 50.640625 21.582031 C 53.582031 22.347656 55.949219 23.902344 58.257812 25.828125 L 59.4375 25.984375 " fill-opacity="1" fill-rule="evenodd"/><path fill="#ffffff" d="M 10.5625 43.664062 C 13.269531 44.582031 31.703125 49.257812 35.652344 48.546875 C 34.59375 45.375 34.691406 40.449219 37.113281 37.148438 C 39.671875 33.664062 43.726562 33.019531 47.558594 33.199219 C 52.714844 33.4375 57.878906 35.039062 62.378906 32.019531 C 58.148438 35.664062 52.796875 34.136719 47.832031 33.910156 C 44.269531 33.746094 40.90625 34.257812 38.308594 37.847656 C 35.773438 41.34375 36.917969 48.035156 37.679688 49.914062 C 29.886719 51.246094 14.566406 45.550781 10.5625 43.664062 " fill-opacity="1" fill-rule="evenodd"/><path fill="#ffffff" d="M 22.253906 46.019531 L 21.695312 45.886719 C 21.722656 45.515625 21.75 45.144531 21.777344 44.773438 C 21.78125 44.714844 21.785156 44.65625 21.789062 44.597656 L 21.179688 44.433594 L 16.183594 43.058594 L 21.28125 44.113281 C 21.648438 44.1875 22.011719 44.265625 22.378906 44.339844 C 22.367188 44.503906 22.355469 44.667969 22.34375 44.828125 L 22.253906 46.019531 " fill-opacity="1" fill-rule="evenodd"/><path fill="#ffffff" d="M 48.628906 19.417969 C 40.699219 18.894531 26.867188 18.246094 18.503906 24.253906 C 26.542969 17.226562 39.398438 18.40625 48.628906 19.417969 " fill-opacity="1" fill-rule="evenodd"/><g clip-path="url(#7c5ca62e31)"><path fill="#ffffff" d="M 39.792969 52.941406 L 43.628906 50.203125 L 37.257812 53.433594 C 38.925781 52.394531 40.601562 51.367188 42.289062 50.359375 C 43.054688 50.367188 43.78125 50.113281 44.421875 49.722656 C 45.089844 49.320312 45.675781 48.769531 46.164062 48.1875 C 46.496094 47.789062 46.792969 47.367188 47.058594 46.925781 C 53.140625 43.742188 59.425781 40.613281 65.023438 38.023438 C 65.171875 38.082031 65.332031 38.117188 65.492188 38.128906 C 56.8125 42.695312 48.273438 47.6875 39.792969 52.941406 Z M 67.382812 36.945312 C 68.351562 36.507812 69.296875 36.085938 70.210938 35.691406 C 69.1875 36.207031 68.164062 36.730469 67.144531 37.261719 C 67.230469 37.15625 67.308594 37.050781 67.382812 36.945312 Z M 42.246094 50.359375 C 38.730469 52.3125 35.414062 54.199219 32.539062 55.894531 L 39.96875 51.121094 L 29.964844 56.386719 C 33.230469 54.449219 37.035156 52.304688 41.078125 50.109375 C 41.398438 50.246094 41.742188 50.328125 42.097656 50.351562 C 42.148438 50.355469 42.195312 50.355469 42.246094 50.359375 " fill-opacity="1" fill-rule="evenodd"/></g><path fill="#ffffff" d="M 12.84375 50.6875 L 16.683594 47.949219 L 10.3125 51.179688 C 12.085938 50.070312 13.875 48.980469 15.671875 47.90625 C 15.730469 47.910156 15.785156 47.914062 15.839844 47.917969 C 16.589844 47.96875 17.3125 47.820312 17.984375 47.539062 C 16.269531 48.578125 14.554688 49.625 12.84375 50.6875 Z M 15.65625 47.902344 C 12.007812 49.929688 8.566406 51.886719 5.59375 53.640625 L 13.023438 48.867188 L 3.019531 54.132812 C 6.402344 52.125 10.359375 49.894531 14.5625 47.621094 C 14.910156 47.765625 15.277344 47.859375 15.65625 47.902344 " fill-opacity="1" fill-rule="evenodd"/></svg>