<svg xmlns="http://www.w3.org/2000/svg" xmlns:xlink="http://www.w3.org/1999/xlink" width="500" zoomAndPan="magnify" viewBox="0 0 375 74.999997" height="100" preserveAspectRatio="xMidYMid meet" version="1.0"><defs><g/><clipPath id="ec7fed1220"><path d="M 226.441406 14.59375 L 272.191406 14.59375 L 272.191406 60.34375 L 226.441406 60.34375 Z M 226.441406 14.59375 " clip-rule="nonzero"/></clipPath><clipPath id="3dced13062"><path d="M 275.757812 25.304688 L 301.472656 25.304688 L 301.472656 49.695312 L 275.757812 49.695312 Z M 275.757812 25.304688 " clip-rule="nonzero"/></clipPath><clipPath id="789efd1d69"><path d="M 301.472656 37.5 L 285.628906 25.304688 L 285.628906 33.226562 L 275.757812 33.226562 L 275.757812 41.773438 L 285.628906 41.773438 L 285.628906 49.695312 Z M 301.472656 37.5 " clip-rule="nonzero"/></clipPath><linearGradient x1="-0.0000450257" gradientTransform="matrix(0.0952752, 0, 0, 0.0952752, 275.755976, 25.30477)" y1="0" x2="269.906204" gradientUnits="userSpaceOnUse" y2="0" id="3adf8b91b0"><stop stop-opacity="1" stop-color="rgb(100%, 19.198608%, 19.198608%)" offset="0"/><stop stop-opacity="1" stop-color="rgb(100%, 19.345093%, 19.241333%)" offset="0.0078125"/><stop stop-opacity="1" stop-color="rgb(100%, 19.639587%, 19.328308%)" offset="0.015625"/><stop stop-opacity="1" stop-color="rgb(100%, 19.934082%, 19.413757%)" offset="0.0234375"/><stop stop-opacity="1" stop-color="rgb(100%, 20.230103%, 19.499207%)" offset="0.03125"/><stop stop-opacity="1" stop-color="rgb(100%, 20.524597%, 19.586182%)" offset="0.0390625"/><stop stop-opacity="1" stop-color="rgb(100%, 20.819092%, 19.671631%)" offset="0.046875"/><stop stop-opacity="1" stop-color="rgb(100%, 21.113586%, 19.75708%)" offset="0.0546875"/><stop stop-opacity="1" stop-color="rgb(100%, 21.408081%, 19.844055%)" offset="0.0625"/><stop stop-opacity="1" stop-color="rgb(100%, 21.702576%, 19.929504%)" offset="0.0703125"/><stop stop-opacity="1" stop-color="rgb(100%, 21.99707%, 20.014954%)" offset="0.078125"/><stop stop-opacity="1" stop-color="rgb(100%, 22.291565%, 20.101929%)" offset="0.0859375"/><stop stop-opacity="1" stop-color="rgb(100%, 22.58606%, 20.187378%)" offset="0.09375"/><stop stop-opacity="1" stop-color="rgb(100%, 22.880554%, 20.272827%)" offset="0.101563"/><stop stop-opacity="1" stop-color="rgb(100%, 23.175049%, 20.359802%)" offset="0.109375"/><stop stop-opacity="1" stop-color="rgb(100%, 23.469543%, 20.445251%)" offset="0.117188"/><stop stop-opacity="1" stop-color="rgb(100%, 23.764038%, 20.530701%)" offset="0.125"/><stop stop-opacity="1" stop-color="rgb(100%, 24.058533%, 20.617676%)" offset="0.132812"/><stop stop-opacity="1" stop-color="rgb(100%, 24.353027%, 20.703125%)" offset="0.140625"/><stop stop-opacity="1" stop-color="rgb(100%, 24.647522%, 20.788574%)" offset="0.148438"/><stop stop-opacity="1" stop-color="rgb(100%, 24.942017%, 20.874023%)" offset="0.15625"/><stop stop-opacity="1" stop-color="rgb(100%, 25.236511%, 20.960999%)" offset="0.164063"/><stop stop-opacity="1" stop-color="rgb(100%, 25.531006%, 21.046448%)" offset="0.171875"/><stop stop-opacity="1" stop-color="rgb(100%, 25.8255%, 21.131897%)" offset="0.179688"/><stop stop-opacity="1" stop-color="rgb(100%, 26.119995%, 21.218872%)" offset="0.1875"/><stop stop-opacity="1" stop-color="rgb(100%, 26.41449%, 21.304321%)" offset="0.195312"/><stop stop-opacity="1" stop-color="rgb(100%, 26.708984%, 21.389771%)" offset="0.203125"/><stop stop-opacity="1" stop-color="rgb(100%, 27.003479%, 21.476746%)" offset="0.210938"/><stop stop-opacity="1" stop-color="rgb(100%, 27.297974%, 21.562195%)" offset="0.21875"/><stop stop-opacity="1" stop-color="rgb(100%, 27.592468%, 21.647644%)" offset="0.226563"/><stop stop-opacity="1" stop-color="rgb(100%, 27.886963%, 21.734619%)" offset="0.234375"/><stop stop-opacity="1" stop-color="rgb(100%, 28.181458%, 21.820068%)" offset="0.242188"/><stop stop-opacity="1" stop-color="rgb(100%, 28.475952%, 21.905518%)" offset="0.25"/><stop stop-opacity="1" stop-color="rgb(100%, 28.770447%, 21.992493%)" offset="0.257812"/><stop stop-opacity="1" stop-color="rgb(100%, 29.064941%, 22.077942%)" offset="0.265625"/><stop stop-opacity="1" stop-color="rgb(100%, 29.359436%, 22.163391%)" offset="0.273438"/><stop stop-opacity="1" stop-color="rgb(100%, 29.653931%, 22.250366%)" offset="0.28125"/><stop stop-opacity="1" stop-color="rgb(100%, 29.948425%, 22.335815%)" offset="0.289062"/><stop stop-opacity="1" stop-color="rgb(100%, 30.24292%, 22.421265%)" offset="0.296875"/><stop stop-opacity="1" stop-color="rgb(100%, 30.537415%, 22.50824%)" offset="0.304687"/><stop stop-opacity="1" stop-color="rgb(100%, 30.831909%, 22.593689%)" offset="0.3125"/><stop stop-opacity="1" stop-color="rgb(100%, 31.126404%, 22.679138%)" offset="0.320312"/><stop stop-opacity="1" stop-color="rgb(100%, 31.420898%, 22.766113%)" offset="0.328125"/><stop stop-opacity="1" stop-color="rgb(100%, 31.715393%, 22.851562%)" offset="0.335938"/><stop stop-opacity="1" stop-color="rgb(100%, 32.009888%, 22.937012%)" offset="0.34375"/><stop stop-opacity="1" stop-color="rgb(100%, 32.304382%, 23.022461%)" offset="0.351562"/><stop stop-opacity="1" stop-color="rgb(100%, 32.600403%, 23.109436%)" offset="0.359375"/><stop stop-opacity="1" stop-color="rgb(100%, 32.894897%, 23.194885%)" offset="0.367188"/><stop stop-opacity="1" stop-color="rgb(100%, 33.189392%, 23.280334%)" offset="0.375"/><stop stop-opacity="1" stop-color="rgb(100%, 33.483887%, 23.36731%)" offset="0.382812"/><stop stop-opacity="1" stop-color="rgb(100%, 33.778381%, 23.452759%)" offset="0.390625"/><stop stop-opacity="1" stop-color="rgb(100%, 34.072876%, 23.538208%)" offset="0.398438"/><stop stop-opacity="1" stop-color="rgb(100%, 34.367371%, 23.625183%)" offset="0.40625"/><stop stop-opacity="1" stop-color="rgb(100%, 34.661865%, 23.710632%)" offset="0.414062"/><stop stop-opacity="1" stop-color="rgb(100%, 34.95636%, 23.796082%)" offset="0.421875"/><stop stop-opacity="1" stop-color="rgb(100%, 35.250854%, 23.883057%)" offset="0.429688"/><stop stop-opacity="1" stop-color="rgb(100%, 35.545349%, 23.968506%)" offset="0.4375"/><stop stop-opacity="1" stop-color="rgb(100%, 35.839844%, 24.053955%)" offset="0.445313"/><stop stop-opacity="1" stop-color="rgb(100%, 36.134338%, 24.14093%)" offset="0.453125"/><stop stop-opacity="1" stop-color="rgb(100%, 36.428833%, 24.226379%)" offset="0.460938"/><stop stop-opacity="1" stop-color="rgb(100%, 36.723328%, 24.311829%)" offset="0.46875"/><stop stop-opacity="1" stop-color="rgb(100%, 37.017822%, 24.398804%)" offset="0.476562"/><stop stop-opacity="1" stop-color="rgb(100%, 37.312317%, 24.484253%)" offset="0.484375"/><stop stop-opacity="1" stop-color="rgb(100%, 37.606812%, 24.569702%)" offset="0.492188"/><stop stop-opacity="1" stop-color="rgb(100%, 37.901306%, 24.656677%)" offset="0.5"/><stop stop-opacity="1" stop-color="rgb(100%, 38.195801%, 24.742126%)" offset="0.507813"/><stop stop-opacity="1" stop-color="rgb(100%, 38.490295%, 24.827576%)" offset="0.515625"/><stop stop-opacity="1" stop-color="rgb(100%, 38.78479%, 24.914551%)" offset="0.523438"/><stop stop-opacity="1" stop-color="rgb(100%, 39.079285%, 25%)" offset="0.53125"/><stop stop-opacity="1" stop-color="rgb(100%, 39.373779%, 25.085449%)" offset="0.539062"/><stop stop-opacity="1" stop-color="rgb(100%, 39.668274%, 25.170898%)" offset="0.546875"/><stop stop-opacity="1" stop-color="rgb(100%, 39.962769%, 25.257874%)" offset="0.554688"/><stop stop-opacity="1" stop-color="rgb(100%, 40.257263%, 25.343323%)" offset="0.5625"/><stop stop-opacity="1" stop-color="rgb(100%, 40.551758%, 25.428772%)" offset="0.570312"/><stop stop-opacity="1" stop-color="rgb(100%, 40.846252%, 25.515747%)" offset="0.578125"/><stop stop-opacity="1" stop-color="rgb(100%, 41.140747%, 25.601196%)" offset="0.585938"/><stop stop-opacity="1" stop-color="rgb(100%, 41.435242%, 25.686646%)" offset="0.59375"/><stop stop-opacity="1" stop-color="rgb(100%, 41.729736%, 25.773621%)" offset="0.601562"/><stop stop-opacity="1" stop-color="rgb(100%, 42.024231%, 25.85907%)" offset="0.609375"/><stop stop-opacity="1" stop-color="rgb(100%, 42.318726%, 25.944519%)" offset="0.617188"/><stop stop-opacity="1" stop-color="rgb(100%, 42.61322%, 26.031494%)" offset="0.625"/><stop stop-opacity="1" stop-color="rgb(100%, 42.907715%, 26.116943%)" offset="0.632812"/><stop stop-opacity="1" stop-color="rgb(100%, 43.202209%, 26.202393%)" offset="0.640625"/><stop stop-opacity="1" stop-color="rgb(100%, 43.496704%, 26.289368%)" offset="0.648438"/><stop stop-opacity="1" stop-color="rgb(100%, 43.791199%, 26.374817%)" offset="0.65625"/><stop stop-opacity="1" stop-color="rgb(100%, 44.085693%, 26.460266%)" offset="0.664062"/><stop stop-opacity="1" stop-color="rgb(100%, 44.380188%, 26.547241%)" offset="0.671875"/><stop stop-opacity="1" stop-color="rgb(100%, 44.674683%, 26.63269%)" offset="0.679688"/><stop stop-opacity="1" stop-color="rgb(100%, 44.970703%, 26.71814%)" offset="0.6875"/><stop stop-opacity="1" stop-color="rgb(100%, 45.265198%, 26.805115%)" offset="0.695313"/><stop stop-opacity="1" stop-color="rgb(100%, 45.559692%, 26.890564%)" offset="0.703125"/><stop stop-opacity="1" stop-color="rgb(100%, 45.854187%, 26.976013%)" offset="0.710938"/><stop stop-opacity="1" stop-color="rgb(100%, 46.148682%, 27.062988%)" offset="0.71875"/><stop stop-opacity="1" stop-color="rgb(100%, 46.443176%, 27.148438%)" offset="0.726562"/><stop stop-opacity="1" stop-color="rgb(100%, 46.737671%, 27.233887%)" offset="0.734375"/><stop stop-opacity="1" stop-color="rgb(100%, 47.032166%, 27.319336%)" offset="0.742188"/><stop stop-opacity="1" stop-color="rgb(100%, 47.32666%, 27.406311%)" offset="0.75"/><stop stop-opacity="1" stop-color="rgb(100%, 47.621155%, 27.49176%)" offset="0.757812"/><stop stop-opacity="1" stop-color="rgb(100%, 47.915649%, 27.577209%)" offset="0.765625"/><stop stop-opacity="1" stop-color="rgb(100%, 48.210144%, 27.664185%)" offset="0.773438"/><stop stop-opacity="1" stop-color="rgb(100%, 48.504639%, 27.749634%)" offset="0.78125"/><stop stop-opacity="1" stop-color="rgb(100%, 48.799133%, 27.835083%)" offset="0.789062"/><stop stop-opacity="1" stop-color="rgb(100%, 49.093628%, 27.922058%)" offset="0.796875"/><stop stop-opacity="1" stop-color="rgb(100%, 49.388123%, 28.007507%)" offset="0.804687"/><stop stop-opacity="1" stop-color="rgb(100%, 49.682617%, 28.092957%)" offset="0.8125"/><stop stop-opacity="1" stop-color="rgb(100%, 49.977112%, 28.179932%)" offset="0.820312"/><stop stop-opacity="1" stop-color="rgb(100%, 50.271606%, 28.265381%)" offset="0.828125"/><stop stop-opacity="1" stop-color="rgb(100%, 50.566101%, 28.35083%)" offset="0.835938"/><stop stop-opacity="1" stop-color="rgb(100%, 50.860596%, 28.437805%)" offset="0.84375"/><stop stop-opacity="1" stop-color="rgb(100%, 51.15509%, 28.523254%)" offset="0.851562"/><stop stop-opacity="1" stop-color="rgb(100%, 51.449585%, 28.608704%)" offset="0.859375"/><stop stop-opacity="1" stop-color="rgb(100%, 51.74408%, 28.695679%)" offset="0.867188"/><stop stop-opacity="1" stop-color="rgb(100%, 52.038574%, 28.781128%)" offset="0.875"/><stop stop-opacity="1" stop-color="rgb(100%, 52.333069%, 28.866577%)" offset="0.882812"/><stop stop-opacity="1" stop-color="rgb(100%, 52.627563%, 28.953552%)" offset="0.890625"/><stop stop-opacity="1" stop-color="rgb(100%, 52.922058%, 29.039001%)" offset="0.898438"/><stop stop-opacity="1" stop-color="rgb(100%, 53.216553%, 29.124451%)" offset="0.90625"/><stop stop-opacity="1" stop-color="rgb(100%, 53.511047%, 29.211426%)" offset="0.914062"/><stop stop-opacity="1" stop-color="rgb(100%, 53.805542%, 29.296875%)" offset="0.921875"/><stop stop-opacity="1" stop-color="rgb(100%, 54.100037%, 29.382324%)" offset="0.929688"/><stop stop-opacity="1" stop-color="rgb(100%, 54.394531%, 29.467773%)" offset="0.9375"/><stop stop-opacity="1" stop-color="rgb(100%, 54.689026%, 29.554749%)" offset="0.945312"/><stop stop-opacity="1" stop-color="rgb(100%, 54.983521%, 29.640198%)" offset="0.953125"/><stop stop-opacity="1" stop-color="rgb(100%, 55.278015%, 29.725647%)" offset="0.960938"/><stop stop-opacity="1" stop-color="rgb(100%, 55.57251%, 29.812622%)" offset="0.96875"/><stop stop-opacity="1" stop-color="rgb(100%, 55.867004%, 29.898071%)" offset="0.976562"/><stop stop-opacity="1" stop-color="rgb(100%, 56.161499%, 29.983521%)" offset="0.984375"/><stop stop-opacity="1" stop-color="rgb(100%, 56.455994%, 30.070496%)" offset="0.992187"/><stop stop-opacity="1" stop-color="rgb(100%, 56.750488%, 30.155945%)" offset="1"/></linearGradient><clipPath id="522f784f82"><path d="M 130 14.59375 L 151 14.59375 L 151 36 L 130 36 Z M 130 14.59375 " clip-rule="nonzero"/></clipPath><clipPath id="d8fd18c2fe"><path d="M 129.855469 14.59375 L 152 14.59375 L 152 37 L 129.855469 37 Z M 129.855469 14.59375 " clip-rule="nonzero"/></clipPath><clipPath id="284d1069e8"><path d="M 145 54 L 172.605469 54 L 172.605469 56 L 145 56 Z M 145 54 " clip-rule="nonzero"/></clipPath><clipPath id="e78f05093e"><path d="M 178.25 26.121094 L 221 26.121094 L 221 48.621094 L 178.25 48.621094 Z M 178.25 26.121094 " clip-rule="nonzero"/></clipPath><clipPath id="863bdf267b"><path d="M 68.546875 13.445312 L 75.097656 13.445312 L 75.097656 58.445312 L 68.546875 58.445312 Z M 68.546875 13.445312 " clip-rule="nonzero"/></clipPath></defs><path fill="#5271ff" d="M 252.71875 30.484375 C 252.828125 30.632812 252.976562 30.710938 253.164062 30.710938 L 254.242188 30.710938 C 254.292969 30.84375 254.355469 30.972656 254.4375 31.09375 C 254.519531 31.214844 254.613281 31.324219 254.71875 31.421875 C 254.828125 31.519531 254.945312 31.605469 255.070312 31.675781 C 255.199219 31.746094 255.332031 31.800781 255.472656 31.839844 C 255.613281 31.878906 255.753906 31.902344 255.902344 31.90625 C 256.046875 31.910156 256.191406 31.898438 256.332031 31.867188 C 256.476562 31.839844 256.613281 31.792969 256.742188 31.730469 C 256.875 31.671875 256.996094 31.59375 257.109375 31.503906 C 257.222656 31.414062 257.324219 31.308594 257.414062 31.195312 C 257.503906 31.078125 257.578125 30.957031 257.636719 30.824219 C 257.695312 30.691406 257.742188 30.550781 257.765625 30.410156 C 257.792969 30.265625 257.804688 30.121094 257.796875 29.976562 C 257.789062 29.832031 257.765625 29.691406 257.722656 29.550781 C 257.683594 29.410156 257.625 29.277344 257.554688 29.152344 C 257.480469 29.027344 257.394531 28.910156 257.292969 28.804688 C 257.195312 28.699219 257.082031 28.609375 256.960938 28.527344 C 256.839844 28.449219 256.710938 28.386719 256.570312 28.335938 C 256.433594 28.289062 256.292969 28.257812 256.148438 28.242188 C 256.003906 28.226562 255.859375 28.230469 255.714844 28.25 C 255.570312 28.269531 255.433594 28.304688 255.296875 28.359375 C 255.160156 28.410156 255.035156 28.480469 254.914062 28.5625 C 254.796875 28.644531 254.6875 28.742188 254.589844 28.847656 C 254.492188 28.957031 254.410156 29.078125 254.34375 29.203125 C 254.273438 29.332031 254.222656 29.46875 254.183594 29.609375 L 253.441406 29.609375 L 251.992188 27.628906 C 251.882812 27.480469 251.734375 27.40625 251.546875 27.40625 L 249.34375 27.40625 L 249.34375 28.507812 L 251.269531 28.507812 Z M 252.71875 30.484375 " fill-opacity="1" fill-rule="nonzero"/><path fill="#5271ff" d="M 258.878906 33.277344 C 258.667969 33.277344 258.460938 33.3125 258.261719 33.382812 C 258.0625 33.453125 257.882812 33.558594 257.71875 33.691406 C 257.554688 33.824219 257.417969 33.984375 257.308594 34.164062 C 257.199219 34.34375 257.125 34.539062 257.082031 34.746094 L 254.453125 34.746094 L 252.859375 32.75 C 252.75 32.613281 252.605469 32.542969 252.429688 32.542969 L 249.492188 32.542969 L 249.492188 33.644531 L 252.164062 33.644531 L 253.757812 35.640625 C 253.871094 35.777344 254.011719 35.847656 254.191406 35.847656 L 257.199219 35.847656 C 257.289062 36.050781 257.410156 36.230469 257.566406 36.390625 C 257.71875 36.550781 257.898438 36.675781 258.097656 36.769531 C 258.296875 36.863281 258.507812 36.921875 258.730469 36.941406 C 258.949219 36.957031 259.167969 36.9375 259.378906 36.878906 C 259.59375 36.816406 259.789062 36.722656 259.96875 36.589844 C 260.144531 36.457031 260.296875 36.300781 260.417969 36.113281 C 260.539062 35.929688 260.621094 35.730469 260.671875 35.511719 C 260.71875 35.296875 260.726562 35.078125 260.699219 34.859375 C 260.667969 34.640625 260.597656 34.433594 260.492188 34.238281 C 260.386719 34.042969 260.253906 33.875 260.085938 33.726562 C 259.917969 33.582031 259.730469 33.472656 259.523438 33.394531 C 259.316406 33.316406 259.101562 33.277344 258.878906 33.277344 Z M 258.878906 33.277344 " fill-opacity="1" fill-rule="nonzero"/><path fill="#5271ff" d="M 256.113281 43.09375 C 255.730469 43.097656 255.382812 43.207031 255.066406 43.425781 C 254.753906 43.644531 254.53125 43.933594 254.398438 44.289062 L 253.164062 44.289062 C 252.976562 44.289062 252.828125 44.367188 252.71875 44.515625 L 251.269531 46.492188 L 249.34375 46.492188 L 249.34375 47.59375 L 251.546875 47.59375 C 251.734375 47.59375 251.882812 47.519531 251.992188 47.367188 L 253.441406 45.390625 L 254.34375 45.390625 C 254.402344 45.613281 254.496094 45.816406 254.632812 46.003906 C 254.765625 46.1875 254.929688 46.34375 255.125 46.46875 C 255.316406 46.59375 255.527344 46.675781 255.75 46.722656 C 255.976562 46.769531 256.199219 46.773438 256.425781 46.734375 C 256.652344 46.695312 256.863281 46.617188 257.0625 46.496094 C 257.257812 46.378906 257.425781 46.226562 257.566406 46.046875 C 257.707031 45.863281 257.808594 45.664062 257.875 45.441406 C 257.9375 45.222656 257.960938 45 257.941406 44.769531 C 257.921875 44.539062 257.859375 44.324219 257.757812 44.117188 C 257.65625 43.910156 257.523438 43.730469 257.351562 43.578125 C 257.183594 43.421875 256.992188 43.300781 256.777344 43.21875 C 256.5625 43.136719 256.339844 43.09375 256.113281 43.09375 Z M 256.113281 43.09375 " fill-opacity="1" fill-rule="nonzero"/><path fill="#5271ff" d="M 258.640625 37.867188 C 258.242188 37.867188 257.878906 37.988281 257.558594 38.222656 C 257.238281 38.460938 257.019531 38.769531 256.898438 39.152344 L 254.042969 39.152344 C 253.867188 39.152344 253.722656 39.21875 253.613281 39.359375 L 252.015625 41.355469 L 249.34375 41.355469 L 249.34375 42.453125 L 252.28125 42.453125 C 252.457031 42.453125 252.601562 42.386719 252.710938 42.25 L 254.308594 40.253906 L 256.898438 40.253906 C 256.96875 40.46875 257.074219 40.664062 257.214844 40.84375 C 257.355469 41.019531 257.523438 41.164062 257.71875 41.28125 C 257.917969 41.394531 258.125 41.46875 258.351562 41.507812 C 258.574219 41.542969 258.796875 41.539062 259.019531 41.492188 C 259.242188 41.445312 259.445312 41.359375 259.636719 41.238281 C 259.828125 41.113281 259.988281 40.960938 260.125 40.777344 C 260.257812 40.59375 260.355469 40.394531 260.414062 40.175781 C 260.472656 39.957031 260.488281 39.734375 260.464844 39.507812 C 260.441406 39.28125 260.378906 39.070312 260.277344 38.867188 C 260.171875 38.664062 260.039062 38.488281 259.867188 38.335938 C 259.699219 38.183594 259.511719 38.070312 259.296875 37.988281 C 259.085938 37.90625 258.867188 37.867188 258.640625 37.867188 Z M 258.640625 37.867188 " fill-opacity="1" fill-rule="nonzero"/><g clip-path="url(#ec7fed1220)"><path fill="#5271ff" d="M 270.195312 33.117188 C 269.710938 33.109375 269.28125 32.960938 268.898438 32.667969 C 268.515625 32.375 268.257812 32 268.125 31.535156 C 267.785156 30.46875 267.355469 29.4375 266.839844 28.441406 C 266.605469 28.019531 266.523438 27.570312 266.585938 27.09375 C 266.648438 26.617188 266.847656 26.203125 267.183594 25.855469 L 268.234375 24.804688 C 266.570312 22.339844 264.507812 20.273438 262.039062 18.609375 L 260.988281 19.660156 C 260.640625 19.996094 260.230469 20.195312 259.75 20.257812 C 259.273438 20.324219 258.824219 20.238281 258.402344 20.003906 C 257.40625 19.488281 256.375 19.058594 255.308594 18.71875 C 254.847656 18.585938 254.46875 18.328125 254.175781 17.945312 C 253.882812 17.5625 253.734375 17.132812 253.726562 16.652344 L 253.726562 15.171875 C 250.804688 14.59375 247.882812 14.59375 244.964844 15.171875 L 244.964844 16.652344 C 244.957031 17.132812 244.804688 17.5625 244.511719 17.945312 C 244.222656 18.328125 243.84375 18.585938 243.382812 18.71875 C 242.3125 19.058594 241.28125 19.488281 240.289062 20.003906 C 239.867188 20.238281 239.417969 20.324219 238.9375 20.257812 C 238.460938 20.195312 238.046875 19.996094 237.703125 19.660156 L 236.652344 18.609375 C 234.183594 20.273438 232.117188 22.339844 230.457031 24.804688 L 231.507812 25.855469 C 231.839844 26.203125 232.039062 26.617188 232.105469 27.09375 C 232.167969 27.570312 232.082031 28.019531 231.851562 28.441406 C 231.332031 29.4375 230.90625 30.46875 230.566406 31.535156 C 230.429688 32 230.171875 32.375 229.792969 32.667969 C 229.410156 32.960938 228.976562 33.109375 228.496094 33.117188 L 227.019531 33.117188 C 226.4375 36.039062 226.4375 38.960938 227.019531 41.878906 L 228.496094 41.878906 C 228.976562 41.890625 229.410156 42.039062 229.792969 42.332031 C 230.171875 42.625 230.429688 43 230.566406 43.460938 C 230.90625 44.53125 231.332031 45.5625 231.851562 46.554688 C 232.082031 46.976562 232.167969 47.429688 232.105469 47.90625 C 232.039062 48.382812 231.839844 48.796875 231.507812 49.140625 L 230.457031 50.191406 C 232.117188 52.660156 234.183594 54.726562 236.652344 56.390625 L 237.703125 55.339844 C 238.046875 55.003906 238.460938 54.804688 238.9375 54.738281 C 239.417969 54.675781 239.867188 54.761719 240.289062 54.992188 C 241.28125 55.511719 242.3125 55.9375 243.382812 56.277344 C 243.84375 56.414062 244.222656 56.671875 244.511719 57.054688 C 244.804688 57.4375 244.957031 57.867188 244.964844 58.347656 L 244.964844 59.824219 C 247.882812 60.40625 250.804688 60.40625 253.726562 59.824219 L 253.726562 58.347656 C 253.734375 57.867188 253.882812 57.4375 254.175781 57.054688 C 254.46875 56.671875 254.847656 56.414062 255.308594 56.277344 C 256.375 55.9375 257.40625 55.511719 258.402344 54.992188 C 258.824219 54.761719 259.273438 54.675781 259.75 54.738281 C 260.230469 54.804688 260.640625 55.003906 260.988281 55.339844 L 262.039062 56.390625 C 264.507812 54.726562 266.570312 52.660156 268.234375 50.191406 L 267.183594 49.140625 C 266.847656 48.796875 266.648438 48.382812 266.585938 47.90625 C 266.523438 47.429688 266.605469 46.976562 266.839844 46.554688 C 267.355469 45.5625 267.785156 44.53125 268.125 43.460938 C 268.257812 43 268.515625 42.625 268.898438 42.332031 C 269.28125 42.039062 269.710938 41.890625 270.195312 41.878906 L 271.671875 41.878906 C 272.25 38.960938 272.25 36.039062 271.671875 33.117188 Z M 249.34375 53.429688 C 248.824219 53.429688 248.300781 53.40625 247.785156 53.351562 C 247.265625 53.300781 246.75 53.226562 246.238281 53.125 C 245.726562 53.023438 245.21875 52.894531 244.71875 52.742188 C 244.222656 52.59375 243.730469 52.417969 243.25 52.21875 C 242.765625 52.019531 242.296875 51.792969 241.835938 51.550781 C 241.375 51.304688 240.929688 51.035156 240.496094 50.746094 C 240.0625 50.457031 239.640625 50.144531 239.238281 49.8125 C 238.835938 49.484375 238.449219 49.132812 238.082031 48.765625 C 237.710938 48.394531 237.363281 48.007812 237.03125 47.605469 C 236.699219 47.203125 236.390625 46.785156 236.097656 46.351562 C 235.808594 45.917969 235.542969 45.46875 235.296875 45.007812 C 235.050781 44.550781 234.828125 44.078125 234.628906 43.597656 C 234.425781 43.113281 234.253906 42.625 234.101562 42.125 C 233.949219 41.625 233.824219 41.121094 233.722656 40.609375 C 233.617188 40.097656 233.542969 39.582031 233.492188 39.0625 C 233.441406 38.542969 233.414062 38.023438 233.414062 37.5 C 233.414062 36.976562 233.441406 36.457031 233.492188 35.9375 C 233.542969 35.417969 233.617188 34.902344 233.722656 34.390625 C 233.824219 33.878906 233.949219 33.375 234.101562 32.875 C 234.253906 32.375 234.425781 31.886719 234.628906 31.402344 C 234.828125 30.921875 235.050781 30.449219 235.296875 29.992188 C 235.542969 29.53125 235.808594 29.082031 236.097656 28.648438 C 236.390625 28.214844 236.699219 27.796875 237.03125 27.394531 C 237.363281 26.992188 237.710938 26.605469 238.082031 26.234375 C 238.449219 25.867188 238.835938 25.515625 239.238281 25.183594 C 239.640625 24.855469 240.0625 24.542969 240.496094 24.253906 C 240.929688 23.964844 241.375 23.695312 241.835938 23.449219 C 242.296875 23.203125 242.765625 22.980469 243.25 22.78125 C 243.730469 22.582031 244.222656 22.40625 244.71875 22.253906 C 245.21875 22.105469 245.726562 21.976562 246.238281 21.875 C 246.75 21.773438 247.265625 21.699219 247.785156 21.644531 C 248.300781 21.59375 248.824219 21.570312 249.34375 21.570312 C 249.867188 21.570312 250.386719 21.59375 250.90625 21.644531 C 251.425781 21.699219 251.941406 21.773438 252.453125 21.875 C 252.964844 21.976562 253.46875 22.105469 253.96875 22.253906 C 254.46875 22.40625 254.960938 22.582031 255.441406 22.78125 C 255.921875 22.980469 256.394531 23.203125 256.855469 23.449219 C 257.316406 23.695312 257.761719 23.964844 258.195312 24.253906 C 258.628906 24.542969 259.046875 24.855469 259.449219 25.183594 C 259.855469 25.515625 260.242188 25.867188 260.609375 26.234375 C 260.976562 26.605469 261.328125 26.992188 261.660156 27.394531 C 261.988281 27.796875 262.300781 28.214844 262.589844 28.648438 C 262.878906 29.082031 263.148438 29.53125 263.394531 29.992188 C 263.640625 30.449219 263.863281 30.921875 264.0625 31.402344 C 264.261719 31.886719 264.4375 32.375 264.589844 32.875 C 264.742188 33.375 264.867188 33.878906 264.96875 34.390625 C 265.070312 34.902344 265.148438 35.417969 265.199219 35.9375 C 265.25 36.457031 265.273438 36.976562 265.273438 37.5 C 265.273438 38.023438 265.25 38.542969 265.199219 39.0625 C 265.148438 39.582031 265.070312 40.097656 264.96875 40.609375 C 264.867188 41.121094 264.742188 41.625 264.589844 42.125 C 264.4375 42.625 264.261719 43.113281 264.0625 43.597656 C 263.863281 44.078125 263.640625 44.550781 263.394531 45.007812 C 263.148438 45.46875 262.878906 45.917969 262.589844 46.351562 C 262.300781 46.785156 261.988281 47.203125 261.660156 47.605469 C 261.328125 48.007812 260.976562 48.394531 260.609375 48.765625 C 260.242188 49.132812 259.855469 49.484375 259.449219 49.8125 C 259.046875 50.144531 258.628906 50.457031 258.195312 50.746094 C 257.761719 51.035156 257.316406 51.304688 256.855469 51.550781 C 256.394531 51.792969 255.921875 52.019531 255.441406 52.21875 C 254.960938 52.417969 254.46875 52.59375 253.96875 52.742188 C 253.46875 52.894531 252.964844 53.023438 252.453125 53.125 C 251.941406 53.226562 251.425781 53.300781 250.90625 53.351562 C 250.386719 53.40625 249.867188 53.429688 249.34375 53.429688 Z M 249.34375 53.429688 " fill-opacity="1" fill-rule="nonzero"/></g><path fill="#5271ff" d="M 249.429688 35.113281 L 250.898438 35.113281 L 250.898438 36.582031 L 249.429688 36.582031 Z M 249.429688 35.113281 " fill-opacity="1" fill-rule="nonzero"/><path fill="#5271ff" d="M 250.796875 37.96875 L 252.265625 37.96875 L 252.265625 39.4375 L 250.796875 39.4375 Z M 250.796875 37.96875 " fill-opacity="1" fill-rule="nonzero"/><path fill="#5271ff" d="M 244.449219 27.222656 C 242.085938 27.222656 240.167969 28.867188 240.167969 30.894531 C 240.167969 30.972656 240.183594 31.046875 240.191406 31.121094 C 240.476562 31.21875 240.734375 31.359375 240.96875 31.546875 C 241.203125 31.734375 241.398438 31.953125 241.554688 32.210938 C 241.710938 32.46875 241.816406 32.742188 241.871094 33.039062 C 241.929688 33.332031 241.933594 33.628906 241.886719 33.921875 L 241.046875 33.765625 C 241.101562 33.394531 241.039062 33.042969 240.855469 32.710938 C 240.671875 32.382812 240.410156 32.144531 240.0625 31.996094 C 239.714844 32.117188 239.394531 32.285156 239.097656 32.5 C 238.800781 32.71875 238.542969 32.972656 238.324219 33.269531 C 238.101562 33.5625 237.933594 33.882812 237.808594 34.226562 C 237.683594 34.574219 237.617188 34.929688 237.597656 35.296875 C 237.605469 35.792969 237.71875 36.269531 237.933594 36.714844 C 238.148438 37.164062 238.445312 37.546875 238.828125 37.867188 C 238.445312 38.183594 238.148438 38.566406 237.933594 39.015625 C 237.71875 39.464844 237.605469 39.9375 237.597656 40.4375 C 237.628906 41.152344 237.847656 41.804688 238.261719 42.390625 C 238.675781 42.980469 239.214844 43.40625 239.882812 43.671875 C 240.234375 43.492188 240.492188 43.21875 240.652344 42.855469 C 240.808594 42.492188 240.835938 42.117188 240.726562 41.734375 L 241.542969 41.476562 C 241.628906 41.765625 241.660156 42.058594 241.636719 42.359375 C 241.617188 42.660156 241.542969 42.949219 241.417969 43.222656 C 241.296875 43.496094 241.128906 43.742188 240.917969 43.957031 C 240.703125 44.171875 240.460938 44.34375 240.191406 44.472656 C 240.402344 46.328125 242.230469 47.777344 244.449219 47.777344 C 245.101562 47.789062 245.726562 47.664062 246.324219 47.402344 C 246.921875 47.144531 247.441406 46.773438 247.875 46.289062 L 247.875 36.90625 C 247.355469 36.902344 246.882812 37.054688 246.460938 37.363281 C 246.035156 37.667969 245.742188 38.066406 245.578125 38.5625 L 245.542969 38.667969 L 244.730469 38.398438 L 244.765625 38.292969 C 244.875 37.964844 245.03125 37.664062 245.234375 37.386719 C 245.4375 37.109375 245.679688 36.867188 245.957031 36.667969 C 246.238281 36.464844 246.539062 36.3125 246.867188 36.207031 C 247.195312 36.101562 247.53125 36.046875 247.875 36.046875 L 247.875 28.710938 C 247.441406 28.226562 246.921875 27.855469 246.324219 27.597656 C 245.726562 27.335938 245.101562 27.210938 244.449219 27.222656 Z M 244.449219 27.222656 " fill-opacity="1" fill-rule="nonzero"/><g clip-path="url(#3dced13062)"><g clip-path="url(#789efd1d69)"><path fill="url(#3adf8b91b0)" d="M 275.757812 25.304688 L 275.757812 49.695312 L 301.472656 49.695312 L 301.472656 25.304688 Z M 275.757812 25.304688 " fill-rule="nonzero"/></g></g><path fill="#71b238" d="M 165.953125 41.078125 L 170.070312 41.078125 L 170.070312 54.8125 L 165.953125 54.8125 Z M 165.953125 41.078125 " fill-opacity="1" fill-rule="evenodd"/><path fill="#71b238" d="M 168.011719 32.15625 C 168.769531 32.15625 169.386719 32.769531 169.386719 33.527344 C 169.386719 34.285156 168.769531 34.902344 168.011719 34.902344 C 167.570312 34.902344 167.179688 34.695312 166.929688 34.371094 C 166.746094 34.140625 166.640625 33.847656 166.640625 33.527344 C 166.640625 32.769531 167.253906 32.15625 168.011719 32.15625 Z M 168.011719 32.15625 " fill-opacity="1" fill-rule="evenodd"/><path fill="#ffd300" d="M 159.769531 43.144531 L 163.886719 43.144531 L 163.886719 54.8125 L 159.769531 54.8125 Z M 159.769531 43.144531 " fill-opacity="1" fill-rule="evenodd"/><path fill="#ffee32" d="M 162.917969 37.492188 C 163.097656 37.722656 163.207031 38.015625 163.207031 38.335938 C 163.207031 39.09375 162.589844 39.707031 161.832031 39.707031 C 161.074219 39.707031 160.460938 39.09375 160.460938 38.335938 C 160.460938 38.183594 160.484375 38.035156 160.53125 37.902344 C 160.710938 37.355469 161.226562 36.960938 161.832031 36.960938 C 162.273438 36.960938 162.664062 37.167969 162.917969 37.492188 Z M 162.917969 37.492188 " fill-opacity="1" fill-rule="evenodd"/><path fill="#71b238" d="M 153.59375 45.199219 L 157.714844 45.199219 L 157.714844 54.8125 L 153.59375 54.8125 Z M 153.59375 45.199219 " fill-opacity="1" fill-rule="evenodd"/><path fill="#ff5b5b" d="M 157.027344 36.273438 C 157.027344 36.425781 157 36.574219 156.957031 36.710938 C 156.773438 37.253906 156.257812 37.648438 155.652344 37.648438 C 155.246094 37.648438 154.878906 37.46875 154.625 37.1875 C 154.410156 36.945312 154.28125 36.625 154.28125 36.273438 C 154.28125 35.515625 154.894531 34.902344 155.652344 34.902344 C 156.410156 34.902344 157.027344 35.515625 157.027344 36.273438 Z M 157.027344 36.273438 " fill-opacity="1" fill-rule="evenodd"/><path fill="#ff5b5b" d="M 147.414062 47.949219 L 151.53125 47.949219 L 151.53125 54.820312 L 147.414062 54.820312 Z M 147.414062 47.949219 " fill-opacity="1" fill-rule="evenodd"/><path fill="#ffee32" d="M 150.5 40.855469 C 150.714844 41.097656 150.847656 41.417969 150.847656 41.769531 C 150.847656 42.527344 150.230469 43.140625 149.472656 43.140625 C 148.714844 43.140625 148.101562 42.527344 148.101562 41.769531 C 148.101562 41.007812 148.714844 40.394531 149.472656 40.394531 C 149.882812 40.394531 150.25 40.574219 150.5 40.855469 Z M 150.5 40.855469 " fill-opacity="1" fill-rule="evenodd"/><g clip-path="url(#522f784f82)"><path fill="#a7eaf9" d="M 140.546875 14.988281 C 146.234375 14.988281 150.847656 19.601562 150.847656 25.289062 C 150.847656 30.511719 146.960938 34.824219 141.921875 35.496094 C 141.472656 35.558594 141.011719 35.589844 140.546875 35.589844 C 140.082031 35.589844 139.621094 35.558594 139.175781 35.496094 C 134.132812 34.824219 130.246094 30.511719 130.246094 25.289062 C 130.246094 19.601562 134.859375 14.988281 140.546875 14.988281 Z M 148.101562 25.289062 C 148.101562 21.117188 144.71875 17.734375 140.546875 17.734375 C 136.375 17.734375 132.996094 21.117188 132.996094 25.289062 C 132.996094 27.375 133.839844 29.261719 135.207031 30.628906 C 136.574219 31.996094 138.460938 32.839844 140.546875 32.839844 C 142.632812 32.839844 144.519531 31.996094 145.886719 30.628906 C 147.253906 29.261719 148.101562 27.375 148.101562 25.289062 Z M 148.101562 25.289062 " fill-opacity="1" fill-rule="evenodd"/></g><path fill="#ffd300" d="M 140.546875 17.734375 C 144.71875 17.734375 148.101562 21.117188 148.101562 25.289062 C 148.101562 27.375 147.253906 29.261719 145.886719 30.628906 L 140.546875 25.289062 Z M 140.546875 17.734375 " fill-opacity="1" fill-rule="evenodd"/><path fill="#71b238" d="M 140.546875 25.289062 L 145.886719 30.628906 C 144.519531 31.996094 142.632812 32.839844 140.546875 32.839844 C 138.460938 32.839844 136.574219 31.996094 135.207031 30.628906 Z M 140.546875 25.289062 " fill-opacity="1" fill-rule="evenodd"/><path fill="#e53950" d="M 143.292969 52.066406 L 143.292969 53.441406 C 143.292969 54.957031 142.0625 56.1875 140.546875 56.1875 C 139.03125 56.1875 137.800781 54.957031 137.800781 53.441406 L 137.800781 52.066406 Z M 143.292969 52.066406 " fill-opacity="1" fill-rule="evenodd"/><path fill="#ff5b5b" d="M 137.800781 39.707031 L 143.292969 39.707031 L 143.292969 52.066406 L 137.800781 52.066406 Z M 137.800781 39.707031 " fill-opacity="1" fill-rule="evenodd"/><path fill="#f4f4f7" d="M 141.921875 35.496094 L 141.921875 39.707031 L 139.175781 39.707031 L 139.175781 35.496094 C 139.621094 35.558594 140.082031 35.589844 140.546875 35.589844 C 141.011719 35.589844 141.472656 35.558594 141.921875 35.496094 Z M 141.921875 35.496094 " fill-opacity="1" fill-rule="evenodd"/><path fill="#ff5b5b" d="M 140.546875 17.734375 L 140.546875 25.289062 L 135.207031 30.628906 C 133.839844 29.261719 132.996094 27.375 132.996094 25.289062 C 132.996094 21.117188 136.375 17.734375 140.546875 17.734375 Z M 140.546875 17.734375 " fill-opacity="1" fill-rule="evenodd"/><g clip-path="url(#d8fd18c2fe)"><path fill="#333333" d="M 140.546875 36.273438 C 140.058594 36.273438 139.5625 36.242188 139.082031 36.175781 C 136.46875 35.828125 134.058594 34.542969 132.304688 32.554688 C 130.535156 30.546875 129.5625 27.96875 129.5625 25.289062 C 129.5625 23.804688 129.851562 22.367188 130.425781 21.011719 C 130.976562 19.703125 131.769531 18.527344 132.777344 17.519531 C 133.789062 16.511719 134.960938 15.71875 136.269531 15.167969 C 137.625 14.59375 139.0625 14.300781 140.546875 14.300781 C 142.03125 14.300781 143.46875 14.59375 144.824219 15.167969 C 146.132812 15.71875 147.308594 16.511719 148.316406 17.519531 C 149.324219 18.527344 150.117188 19.703125 150.667969 21.011719 C 151.242188 22.367188 151.535156 23.804688 151.535156 25.289062 C 151.535156 27.96875 150.558594 30.546875 148.789062 32.554688 C 147.035156 34.542969 144.625 35.828125 142.011719 36.179688 C 141.53125 36.242188 141.039062 36.273438 140.546875 36.273438 Z M 140.546875 15.675781 C 135.246094 15.675781 130.933594 19.988281 130.933594 25.289062 C 130.933594 30.089844 134.515625 34.183594 139.265625 34.816406 C 140.109375 34.929688 140.988281 34.929688 141.828125 34.816406 C 146.578125 34.183594 150.160156 30.085938 150.160156 25.289062 C 150.160156 19.988281 145.847656 15.675781 140.546875 15.675781 Z M 140.546875 15.675781 " fill-opacity="1" fill-rule="evenodd"/></g><path fill="#333333" d="M 140.546875 33.527344 C 138.347656 33.527344 136.277344 32.671875 134.722656 31.113281 C 133.164062 29.558594 132.308594 27.488281 132.308594 25.289062 C 132.308594 23.089844 133.164062 21.019531 134.722656 19.460938 C 136.277344 17.90625 138.347656 17.050781 140.546875 17.050781 C 142.746094 17.050781 144.816406 17.90625 146.375 19.460938 C 147.929688 21.019531 148.785156 23.089844 148.785156 25.289062 C 148.785156 27.488281 147.929688 29.558594 146.375 31.113281 C 144.816406 32.671875 142.746094 33.527344 140.546875 33.527344 Z M 140.546875 18.421875 C 136.761719 18.421875 133.679688 21.503906 133.679688 25.289062 C 133.679688 27.121094 134.394531 28.847656 135.691406 30.144531 C 136.988281 31.441406 138.714844 32.15625 140.546875 32.15625 C 142.382812 32.15625 144.105469 31.441406 145.402344 30.144531 C 146.699219 28.847656 147.414062 27.121094 147.414062 25.289062 C 147.414062 21.503906 144.332031 18.421875 140.546875 18.421875 Z M 140.546875 18.421875 " fill-opacity="1" fill-rule="evenodd"/><path fill="#333333" d="M 139.171875 40.394531 C 138.792969 40.394531 138.488281 40.085938 138.488281 39.707031 L 138.488281 35.496094 C 138.488281 35.117188 138.792969 34.8125 139.171875 34.8125 C 139.554688 34.8125 139.859375 35.117188 139.859375 35.496094 L 139.859375 39.707031 C 139.859375 40.085938 139.554688 40.394531 139.171875 40.394531 Z M 139.171875 40.394531 " fill-opacity="1" fill-rule="evenodd"/><path fill="#333333" d="M 141.921875 40.394531 C 141.542969 40.394531 141.234375 40.085938 141.234375 39.707031 L 141.234375 35.496094 C 141.234375 35.117188 141.542969 34.8125 141.921875 34.8125 C 142.300781 34.8125 142.605469 35.117188 142.605469 35.496094 L 142.605469 39.707031 C 142.605469 40.085938 142.300781 40.394531 141.921875 40.394531 Z M 141.921875 40.394531 " fill-opacity="1" fill-rule="evenodd"/><path fill="#333333" d="M 140.546875 56.875 C 138.652344 56.875 137.113281 55.332031 137.113281 53.441406 L 137.113281 39.707031 C 137.113281 39.328125 137.421875 39.019531 137.800781 39.019531 L 143.292969 39.019531 C 143.671875 39.019531 143.980469 39.328125 143.980469 39.707031 L 143.980469 53.441406 C 143.980469 55.332031 142.441406 56.875 140.546875 56.875 Z M 138.488281 40.394531 L 138.488281 53.441406 C 138.488281 54.578125 139.410156 55.5 140.546875 55.5 C 141.683594 55.5 142.605469 54.578125 142.605469 53.441406 L 142.605469 40.394531 Z M 138.488281 40.394531 " fill-opacity="1" fill-rule="evenodd"/><path fill="#333333" d="M 143.292969 52.753906 L 137.800781 52.753906 C 137.421875 52.753906 137.113281 52.445312 137.113281 52.066406 C 137.113281 51.6875 137.421875 51.378906 137.800781 51.378906 L 143.292969 51.378906 C 143.671875 51.378906 143.980469 51.6875 143.980469 52.066406 C 143.980469 52.445312 143.671875 52.753906 143.292969 52.753906 Z M 143.292969 52.753906 " fill-opacity="1" fill-rule="evenodd"/><path fill="#333333" d="M 140.546875 25.976562 C 140.167969 25.976562 139.859375 25.667969 139.859375 25.289062 L 139.859375 17.734375 C 139.859375 17.355469 140.167969 17.050781 140.546875 17.050781 C 140.925781 17.050781 141.234375 17.355469 141.234375 17.734375 L 141.234375 25.289062 C 141.234375 25.667969 140.925781 25.976562 140.546875 25.976562 Z M 140.546875 25.976562 " fill-opacity="1" fill-rule="evenodd"/><path fill="#333333" d="M 135.207031 31.316406 C 135.03125 31.316406 134.855469 31.25 134.71875 31.113281 C 134.453125 30.847656 134.453125 30.414062 134.71875 30.144531 L 140.0625 24.804688 C 140.328125 24.535156 140.765625 24.535156 141.03125 24.804688 C 141.300781 25.070312 141.300781 25.507812 141.03125 25.773438 L 135.691406 31.113281 C 135.558594 31.25 135.382812 31.316406 135.207031 31.316406 Z M 135.207031 31.316406 " fill-opacity="1" fill-rule="evenodd"/><path fill="#333333" d="M 145.886719 31.316406 C 145.710938 31.316406 145.535156 31.25 145.402344 31.113281 L 140.0625 25.773438 C 139.792969 25.507812 139.792969 25.070312 140.0625 24.804688 C 140.328125 24.535156 140.765625 24.535156 141.03125 24.804688 L 146.375 30.144531 C 146.640625 30.414062 146.640625 30.847656 146.375 31.113281 C 146.238281 31.25 146.0625 31.316406 145.886719 31.316406 Z M 145.886719 31.316406 " fill-opacity="1" fill-rule="evenodd"/><path fill="#333333" d="M 151.53125 55.5 C 151.152344 55.5 150.847656 55.191406 150.847656 54.8125 L 150.847656 48.632812 L 148.101562 48.632812 L 148.101562 54.8125 C 148.101562 55.191406 147.792969 55.5 147.414062 55.5 C 147.035156 55.5 146.726562 55.191406 146.726562 54.8125 L 146.726562 47.949219 C 146.726562 47.566406 147.035156 47.261719 147.414062 47.261719 L 151.53125 47.261719 C 151.914062 47.261719 152.21875 47.566406 152.21875 47.949219 L 152.21875 54.8125 C 152.21875 55.191406 151.914062 55.5 151.53125 55.5 Z M 151.53125 55.5 " fill-opacity="1" fill-rule="evenodd"/><path fill="#333333" d="M 157.710938 55.5 C 157.332031 55.5 157.027344 55.191406 157.027344 54.8125 L 157.027344 45.886719 L 154.28125 45.886719 L 154.28125 54.8125 C 154.28125 55.191406 153.972656 55.5 153.59375 55.5 C 153.214844 55.5 152.90625 55.191406 152.90625 54.8125 L 152.90625 45.199219 C 152.90625 44.820312 153.214844 44.515625 153.59375 44.515625 L 157.710938 44.515625 C 158.09375 44.515625 158.398438 44.820312 158.398438 45.199219 L 158.398438 54.8125 C 158.398438 55.191406 158.09375 55.5 157.710938 55.5 Z M 157.710938 55.5 " fill-opacity="1" fill-rule="evenodd"/><path fill="#333333" d="M 163.890625 55.5 C 163.511719 55.5 163.207031 55.191406 163.207031 54.8125 L 163.207031 43.828125 L 160.460938 43.828125 L 160.460938 54.8125 C 160.460938 55.191406 160.152344 55.5 159.773438 55.5 C 159.394531 55.5 159.085938 55.191406 159.085938 54.8125 L 159.085938 43.140625 C 159.085938 42.761719 159.394531 42.453125 159.773438 42.453125 L 163.890625 42.453125 C 164.273438 42.453125 164.578125 42.761719 164.578125 43.140625 L 164.578125 54.8125 C 164.578125 55.191406 164.273438 55.5 163.890625 55.5 Z M 163.890625 55.5 " fill-opacity="1" fill-rule="evenodd"/><path fill="#333333" d="M 170.070312 55.5 C 169.691406 55.5 169.386719 55.191406 169.386719 54.8125 L 169.386719 41.769531 L 166.640625 41.769531 L 166.640625 54.8125 C 166.640625 55.191406 166.332031 55.5 165.953125 55.5 C 165.574219 55.5 165.265625 55.191406 165.265625 54.8125 L 165.265625 41.082031 C 165.265625 40.703125 165.574219 40.394531 165.953125 40.394531 L 170.070312 40.394531 C 170.453125 40.394531 170.757812 40.703125 170.757812 41.082031 L 170.757812 54.8125 C 170.757812 55.191406 170.453125 55.5 170.070312 55.5 Z M 170.070312 55.5 " fill-opacity="1" fill-rule="evenodd"/><g clip-path="url(#284d1069e8)"><path fill="#333333" d="M 171.445312 55.5 L 146.039062 55.5 C 145.660156 55.5 145.351562 55.191406 145.351562 54.8125 C 145.351562 54.433594 145.660156 54.128906 146.039062 54.128906 L 171.445312 54.128906 C 171.824219 54.128906 172.132812 54.433594 172.132812 54.8125 C 172.132812 55.191406 171.824219 55.5 171.445312 55.5 Z M 171.445312 55.5 " fill-opacity="1" fill-rule="evenodd"/></g><path fill="#333333" d="M 149.472656 43.828125 C 148.335938 43.828125 147.414062 42.902344 147.414062 41.769531 C 147.414062 40.632812 148.335938 39.707031 149.472656 39.707031 C 150.0625 39.707031 150.621094 39.960938 151.011719 40.398438 C 151.347656 40.777344 151.53125 41.261719 151.53125 41.769531 C 151.53125 42.902344 150.609375 43.828125 149.472656 43.828125 Z M 149.472656 41.082031 C 149.09375 41.082031 148.785156 41.390625 148.785156 41.769531 C 148.785156 42.144531 149.09375 42.453125 149.472656 42.453125 C 149.851562 42.453125 150.160156 42.144531 150.160156 41.769531 C 150.160156 41.597656 150.097656 41.4375 149.988281 41.3125 C 149.855469 41.164062 149.667969 41.082031 149.472656 41.082031 Z M 149.472656 41.082031 " fill-opacity="1" fill-rule="evenodd"/><path fill="#333333" d="M 155.652344 38.335938 C 155.066406 38.335938 154.503906 38.082031 154.113281 37.644531 C 153.777344 37.265625 153.59375 36.78125 153.59375 36.273438 C 153.59375 35.140625 154.515625 34.214844 155.652344 34.214844 C 156.789062 34.214844 157.710938 35.140625 157.710938 36.273438 C 157.710938 36.496094 157.675781 36.714844 157.609375 36.925781 C 157.328125 37.769531 156.542969 38.335938 155.652344 38.335938 Z M 155.652344 35.589844 C 155.273438 35.589844 154.964844 35.894531 154.964844 36.273438 C 154.964844 36.441406 155.027344 36.605469 155.140625 36.730469 C 155.269531 36.878906 155.457031 36.960938 155.652344 36.960938 C 155.949219 36.960938 156.210938 36.773438 156.304688 36.492188 C 156.328125 36.421875 156.339844 36.347656 156.339844 36.273438 C 156.339844 35.894531 156.03125 35.589844 155.652344 35.589844 Z M 155.652344 35.589844 " fill-opacity="1" fill-rule="evenodd"/><path fill="#333333" d="M 161.832031 40.394531 C 160.695312 40.394531 159.773438 39.46875 159.773438 38.335938 C 159.773438 38.113281 159.808594 37.894531 159.878906 37.683594 C 160.160156 36.839844 160.945312 36.273438 161.832031 36.273438 C 162.472656 36.273438 163.066406 36.566406 163.457031 37.070312 C 163.742188 37.433594 163.890625 37.871094 163.890625 38.335938 C 163.890625 39.46875 162.96875 40.394531 161.832031 40.394531 Z M 161.832031 37.648438 C 161.535156 37.648438 161.273438 37.835938 161.179688 38.117188 C 161.15625 38.1875 161.144531 38.261719 161.144531 38.335938 C 161.144531 38.714844 161.453125 39.019531 161.832031 39.019531 C 162.210938 39.019531 162.519531 38.714844 162.519531 38.335938 C 162.519531 38.140625 162.441406 37.996094 162.375 37.914062 C 162.242188 37.746094 162.046875 37.648438 161.832031 37.648438 Z M 161.832031 37.648438 " fill-opacity="1" fill-rule="evenodd"/><path fill="#333333" d="M 168.011719 35.589844 C 167.371094 35.589844 166.78125 35.296875 166.386719 34.792969 C 166.101562 34.429688 165.953125 33.992188 165.953125 33.527344 C 165.953125 32.390625 166.875 31.46875 168.011719 31.46875 C 169.148438 31.46875 170.070312 32.390625 170.070312 33.527344 C 170.070312 34.664062 169.148438 35.589844 168.011719 35.589844 Z M 168.011719 32.839844 C 167.632812 32.839844 167.324219 33.148438 167.324219 33.527344 C 167.324219 33.683594 167.375 33.828125 167.46875 33.949219 C 167.601562 34.117188 167.796875 34.214844 168.011719 34.214844 C 168.390625 34.214844 168.699219 33.90625 168.699219 33.527344 C 168.699219 33.148438 168.390625 32.839844 168.011719 32.839844 Z M 168.011719 32.839844 " fill-opacity="1" fill-rule="evenodd"/><path fill="#333333" d="M 150.5 41.542969 C 150.308594 41.542969 150.121094 41.464844 149.984375 41.3125 C 149.734375 41.027344 149.761719 40.59375 150.042969 40.34375 L 154.171875 36.671875 C 154.453125 36.421875 154.886719 36.445312 155.140625 36.730469 C 155.390625 37.015625 155.367188 37.449219 155.082031 37.699219 L 150.957031 41.367188 C 150.824219 41.484375 150.660156 41.542969 150.5 41.542969 Z M 150.5 41.542969 " fill-opacity="1" fill-rule="evenodd"/><path fill="#333333" d="M 162.917969 38.179688 C 162.710938 38.179688 162.511719 38.085938 162.375 37.914062 C 162.140625 37.613281 162.195312 37.183594 162.496094 36.949219 L 166.507812 33.828125 C 166.804688 33.597656 167.238281 33.652344 167.46875 33.949219 C 167.703125 34.25 167.648438 34.679688 167.351562 34.914062 L 163.339844 38.035156 C 163.210938 38.132812 163.0625 38.179688 162.917969 38.179688 Z M 162.917969 38.179688 " fill-opacity="1" fill-rule="evenodd"/><path fill="#333333" d="M 160.53125 38.585938 C 160.457031 38.585938 160.382812 38.574219 160.3125 38.550781 L 156.738281 37.359375 C 156.378906 37.242188 156.183594 36.851562 156.304688 36.492188 C 156.425781 36.132812 156.8125 35.9375 157.171875 36.058594 L 160.746094 37.25 C 161.105469 37.367188 161.300781 37.757812 161.179688 38.117188 C 161.085938 38.40625 160.816406 38.585938 160.53125 38.585938 Z M 160.53125 38.585938 " fill-opacity="1" fill-rule="evenodd"/><g clip-path="url(#e78f05093e)"><path fill="#ff853a" d="M 178.375 26.121094 L 178.375 31.828125 L 185.71875 37.511719 L 178.375 43.171875 L 178.375 48.878906 L 193.085938 37.488281 Z M 192.363281 26.121094 L 192.363281 31.828125 L 199.707031 37.511719 L 192.363281 43.171875 L 192.363281 48.878906 L 207.074219 37.488281 Z M 206.347656 26.121094 L 206.347656 31.828125 L 213.691406 37.511719 L 206.347656 43.171875 L 206.347656 48.878906 L 221.058594 37.488281 Z M 206.347656 26.121094 " fill-opacity="1" fill-rule="nonzero"/></g><g clip-path="url(#863bdf267b)"><path fill="#000000" d="M 68.355469 58.441406 L 75.097656 58.441406 L 75.097656 13.445312 L 68.355469 13.445312 L 68.355469 15.933594 L 72.542969 15.933594 L 72.542969 55.953125 L 68.355469 55.953125 L 68.355469 58.441406 " fill-opacity="1" fill-rule="nonzero"/></g><g fill="#004aad" fill-opacity="1"><g transform="translate(-0.476184, 58.979565)"><g><path d="M 2.6875 0 L 1.0625 0 L 1.0625 -8.203125 L 2.6875 -8.203125 Z M 2.6875 0 "/></g></g></g><g fill="#004aad" fill-opacity="1"><g transform="translate(3.284745, 58.979565)"><g><path d="M 0.890625 0 L 0.890625 -6.1875 L 2.390625 -6.1875 L 2.390625 -5.28125 L 2.5 -5.25 C 2.882812 -5.957031 3.507812 -6.3125 4.375 -6.3125 C 5.09375 -6.3125 5.617188 -6.113281 5.953125 -5.71875 C 6.285156 -5.332031 6.453125 -4.769531 6.453125 -4.03125 L 6.453125 0 L 4.90625 0 L 4.90625 -3.828125 C 4.90625 -4.242188 4.820312 -4.539062 4.65625 -4.71875 C 4.488281 -4.90625 4.222656 -5 3.859375 -5 C 3.410156 -5 3.0625 -4.851562 2.8125 -4.5625 C 2.570312 -4.28125 2.453125 -3.828125 2.453125 -3.203125 L 2.453125 0 Z M 0.890625 0 "/></g></g></g><g fill="#004aad" fill-opacity="1"><g transform="translate(10.537163, 58.979565)"><g><path d="M 4.265625 -1.484375 L 4.671875 -0.328125 C 4.503906 -0.191406 4.289062 -0.0820312 4.03125 0 C 3.78125 0.0820312 3.492188 0.125 3.171875 0.125 C 2.503906 0.125 1.992188 -0.0546875 1.640625 -0.421875 C 1.296875 -0.796875 1.125 -1.328125 1.125 -2.015625 L 1.125 -4.96875 L 0.1875 -4.96875 L 0.1875 -6.203125 L 1.125 -6.203125 L 1.125 -7.40625 L 2.6875 -7.65625 L 2.6875 -6.203125 L 4.4375 -6.203125 L 4.4375 -4.96875 L 2.6875 -4.96875 L 2.6875 -2.140625 C 2.6875 -1.828125 2.75 -1.597656 2.875 -1.453125 C 3 -1.316406 3.1875 -1.25 3.4375 -1.25 C 3.707031 -1.25 3.945312 -1.328125 4.15625 -1.484375 Z M 4.265625 -1.484375 "/></g></g></g><g fill="#004aad" fill-opacity="1"><g transform="translate(15.34779, 58.979565)"><g><path d="M 6.125 -2.75 L 2.140625 -2.75 C 2.179688 -2.207031 2.332031 -1.8125 2.59375 -1.5625 C 2.863281 -1.320312 3.222656 -1.203125 3.671875 -1.203125 C 4.023438 -1.203125 4.3125 -1.265625 4.53125 -1.390625 C 4.757812 -1.523438 4.941406 -1.726562 5.078125 -2 L 5.1875 -2 L 6.21875 -1.34375 C 6.019531 -0.90625 5.710938 -0.550781 5.296875 -0.28125 C 4.890625 -0.0078125 4.347656 0.125 3.671875 0.125 C 3.035156 0.125 2.484375 0.00390625 2.015625 -0.234375 C 1.546875 -0.484375 1.1875 -0.847656 0.9375 -1.328125 C 0.6875 -1.816406 0.5625 -2.40625 0.5625 -3.09375 C 0.5625 -3.800781 0.691406 -4.394531 0.953125 -4.875 C 1.222656 -5.351562 1.582031 -5.710938 2.03125 -5.953125 C 2.488281 -6.191406 3 -6.3125 3.5625 -6.3125 C 4.4375 -6.3125 5.101562 -6.078125 5.5625 -5.609375 C 6.03125 -5.148438 6.265625 -4.472656 6.265625 -3.578125 C 6.265625 -3.242188 6.253906 -2.988281 6.234375 -2.8125 Z M 4.78125 -3.75 C 4.769531 -4.21875 4.660156 -4.5625 4.453125 -4.78125 C 4.253906 -5 3.957031 -5.109375 3.5625 -5.109375 C 2.769531 -5.109375 2.304688 -4.65625 2.171875 -3.75 Z M 4.78125 -3.75 "/></g></g></g><g fill="#004aad" fill-opacity="1"><g transform="translate(22.078174, 58.979565)"><g><path d="M 2.578125 0.125 C 2.015625 0.125 1.585938 -0.0234375 1.296875 -0.328125 C 1.003906 -0.628906 0.859375 -1.085938 0.859375 -1.703125 L 0.859375 -8.6875 L 2.40625 -8.6875 L 2.40625 -1.765625 C 2.40625 -1.390625 2.5625 -1.203125 2.875 -1.203125 C 2.96875 -1.203125 3.066406 -1.21875 3.171875 -1.25 L 3.25 -1.21875 L 3.390625 -0.03125 C 3.296875 0.0195312 3.175781 0.0546875 3.03125 0.078125 C 2.894531 0.109375 2.742188 0.125 2.578125 0.125 Z M 2.578125 0.125 "/></g></g></g><g fill="#004aad" fill-opacity="1"><g transform="translate(25.637023, 58.979565)"><g><path d="M 2.578125 0.125 C 2.015625 0.125 1.585938 -0.0234375 1.296875 -0.328125 C 1.003906 -0.628906 0.859375 -1.085938 0.859375 -1.703125 L 0.859375 -8.6875 L 2.40625 -8.6875 L 2.40625 -1.765625 C 2.40625 -1.390625 2.5625 -1.203125 2.875 -1.203125 C 2.96875 -1.203125 3.066406 -1.21875 3.171875 -1.25 L 3.25 -1.21875 L 3.390625 -0.03125 C 3.296875 0.0195312 3.175781 0.0546875 3.03125 0.078125 C 2.894531 0.109375 2.742188 0.125 2.578125 0.125 Z M 2.578125 0.125 "/></g></g></g><g fill="#004aad" fill-opacity="1"><g transform="translate(29.195872, 58.979565)"><g><path d="M 1.671875 -6.9375 C 1.390625 -6.9375 1.160156 -7.019531 0.984375 -7.1875 C 0.804688 -7.363281 0.71875 -7.582031 0.71875 -7.84375 C 0.71875 -8.113281 0.804688 -8.332031 0.984375 -8.5 C 1.160156 -8.675781 1.390625 -8.765625 1.671875 -8.765625 C 1.859375 -8.765625 2.023438 -8.722656 2.171875 -8.640625 C 2.316406 -8.566406 2.425781 -8.457031 2.5 -8.3125 C 2.582031 -8.175781 2.625 -8.019531 2.625 -7.84375 C 2.625 -7.675781 2.582031 -7.519531 2.5 -7.375 C 2.425781 -7.238281 2.316406 -7.128906 2.171875 -7.046875 C 2.023438 -6.972656 1.859375 -6.9375 1.671875 -6.9375 Z M 0.890625 0 L 0.890625 -6.1875 L 2.453125 -6.1875 L 2.453125 0 Z M 0.890625 0 "/></g></g></g><g fill="#004aad" fill-opacity="1"><g transform="translate(32.530188, 58.979565)"><g><path d="M 3.21875 2.625 C 2.1875 2.625 1.425781 2.472656 0.9375 2.171875 C 0.457031 1.878906 0.21875 1.460938 0.21875 0.921875 C 0.21875 0.597656 0.320312 0.332031 0.53125 0.125 C 0.738281 -0.0820312 1.035156 -0.222656 1.421875 -0.296875 L 1.421875 -0.40625 C 1.210938 -0.53125 1.0625 -0.671875 0.96875 -0.828125 C 0.882812 -0.984375 0.84375 -1.164062 0.84375 -1.375 C 0.84375 -1.875 1.164062 -2.207031 1.8125 -2.375 L 1.8125 -2.5 C 1.476562 -2.6875 1.222656 -2.921875 1.046875 -3.203125 C 0.878906 -3.492188 0.796875 -3.835938 0.796875 -4.234375 C 0.796875 -4.648438 0.890625 -5.015625 1.078125 -5.328125 C 1.273438 -5.640625 1.554688 -5.878906 1.921875 -6.046875 C 2.285156 -6.222656 2.722656 -6.3125 3.234375 -6.3125 C 3.742188 -6.3125 4.15625 -6.222656 4.46875 -6.046875 C 4.65625 -6.316406 4.765625 -6.632812 4.796875 -7 L 4.90625 -7.078125 L 6.03125 -6.796875 C 6 -6.503906 5.910156 -6.253906 5.765625 -6.046875 C 5.628906 -5.847656 5.414062 -5.671875 5.125 -5.515625 L 5.125 -5.390625 C 5.476562 -5.085938 5.65625 -4.660156 5.65625 -4.109375 C 5.65625 -3.722656 5.554688 -3.378906 5.359375 -3.078125 C 5.171875 -2.773438 4.894531 -2.535156 4.53125 -2.359375 C 4.164062 -2.179688 3.734375 -2.09375 3.234375 -2.09375 L 3 -2.109375 C 2.84375 -2.109375 2.734375 -2.109375 2.671875 -2.109375 C 2.535156 -2.109375 2.425781 -2.070312 2.34375 -2 C 2.257812 -1.925781 2.21875 -1.828125 2.21875 -1.703125 C 2.21875 -1.578125 2.269531 -1.476562 2.375 -1.40625 C 2.476562 -1.332031 2.632812 -1.289062 2.84375 -1.28125 L 4.234375 -1.234375 C 5.597656 -1.191406 6.28125 -0.597656 6.28125 0.546875 C 6.28125 0.941406 6.175781 1.296875 5.96875 1.609375 C 5.769531 1.921875 5.441406 2.164062 4.984375 2.34375 C 4.523438 2.53125 3.9375 2.625 3.21875 2.625 Z M 3.234375 -3.1875 C 3.523438 -3.1875 3.753906 -3.273438 3.921875 -3.453125 C 4.097656 -3.628906 4.1875 -3.878906 4.1875 -4.203125 C 4.1875 -4.523438 4.097656 -4.773438 3.921875 -4.953125 C 3.753906 -5.128906 3.523438 -5.21875 3.234375 -5.21875 C 2.929688 -5.21875 2.695312 -5.128906 2.53125 -4.953125 C 2.363281 -4.773438 2.28125 -4.523438 2.28125 -4.203125 C 2.28125 -3.878906 2.363281 -3.628906 2.53125 -3.453125 C 2.695312 -3.273438 2.929688 -3.1875 3.234375 -3.1875 Z M 3.21875 1.5 C 3.75 1.5 4.132812 1.421875 4.375 1.265625 C 4.613281 1.117188 4.734375 0.925781 4.734375 0.6875 C 4.734375 0.5 4.671875 0.359375 4.546875 0.265625 C 4.421875 0.171875 4.222656 0.117188 3.953125 0.109375 L 2.734375 0.0625 C 2.691406 0.0625 2.648438 0.0546875 2.609375 0.046875 C 2.578125 0.046875 2.546875 0.046875 2.515625 0.046875 C 2.253906 0.046875 2.054688 0.0976562 1.921875 0.203125 C 1.785156 0.316406 1.71875 0.472656 1.71875 0.671875 C 1.71875 0.941406 1.84375 1.144531 2.09375 1.28125 C 2.34375 1.425781 2.71875 1.5 3.21875 1.5 Z M 3.21875 1.5 "/></g></g></g><g fill="#004aad" fill-opacity="1"><g transform="translate(38.968679, 58.979565)"><g><path d="M 6.125 -2.75 L 2.140625 -2.75 C 2.179688 -2.207031 2.332031 -1.8125 2.59375 -1.5625 C 2.863281 -1.320312 3.222656 -1.203125 3.671875 -1.203125 C 4.023438 -1.203125 4.3125 -1.265625 4.53125 -1.390625 C 4.757812 -1.523438 4.941406 -1.726562 5.078125 -2 L 5.1875 -2 L 6.21875 -1.34375 C 6.019531 -0.90625 5.710938 -0.550781 5.296875 -0.28125 C 4.890625 -0.0078125 4.347656 0.125 3.671875 0.125 C 3.035156 0.125 2.484375 0.00390625 2.015625 -0.234375 C 1.546875 -0.484375 1.1875 -0.847656 0.9375 -1.328125 C 0.6875 -1.816406 0.5625 -2.40625 0.5625 -3.09375 C 0.5625 -3.800781 0.691406 -4.394531 0.953125 -4.875 C 1.222656 -5.351562 1.582031 -5.710938 2.03125 -5.953125 C 2.488281 -6.191406 3 -6.3125 3.5625 -6.3125 C 4.4375 -6.3125 5.101562 -6.078125 5.5625 -5.609375 C 6.03125 -5.148438 6.265625 -4.472656 6.265625 -3.578125 C 6.265625 -3.242188 6.253906 -2.988281 6.234375 -2.8125 Z M 4.78125 -3.75 C 4.769531 -4.21875 4.660156 -4.5625 4.453125 -4.78125 C 4.253906 -5 3.957031 -5.109375 3.5625 -5.109375 C 2.769531 -5.109375 2.304688 -4.65625 2.171875 -3.75 Z M 4.78125 -3.75 "/></g></g></g><g fill="#004aad" fill-opacity="1"><g transform="translate(45.699063, 58.979565)"><g><path d="M 0.890625 0 L 0.890625 -6.1875 L 2.390625 -6.1875 L 2.390625 -5.28125 L 2.5 -5.25 C 2.882812 -5.957031 3.507812 -6.3125 4.375 -6.3125 C 5.09375 -6.3125 5.617188 -6.113281 5.953125 -5.71875 C 6.285156 -5.332031 6.453125 -4.769531 6.453125 -4.03125 L 6.453125 0 L 4.90625 0 L 4.90625 -3.828125 C 4.90625 -4.242188 4.820312 -4.539062 4.65625 -4.71875 C 4.488281 -4.90625 4.222656 -5 3.859375 -5 C 3.410156 -5 3.0625 -4.851562 2.8125 -4.5625 C 2.570312 -4.28125 2.453125 -3.828125 2.453125 -3.203125 L 2.453125 0 Z M 0.890625 0 "/></g></g></g><g fill="#004aad" fill-opacity="1"><g transform="translate(52.951481, 58.979565)"><g><path d="M 3.609375 0.125 C 3.015625 0.125 2.484375 0 2.015625 -0.25 C 1.554688 -0.5 1.195312 -0.863281 0.9375 -1.34375 C 0.6875 -1.832031 0.5625 -2.414062 0.5625 -3.09375 C 0.5625 -3.769531 0.6875 -4.347656 0.9375 -4.828125 C 1.195312 -5.316406 1.554688 -5.6875 2.015625 -5.9375 C 2.472656 -6.1875 2.992188 -6.3125 3.578125 -6.3125 C 4.890625 -6.3125 5.726562 -5.835938 6.09375 -4.890625 L 5.03125 -4.125 L 4.90625 -4.125 C 4.78125 -4.414062 4.613281 -4.628906 4.40625 -4.765625 C 4.207031 -4.910156 3.929688 -4.984375 3.578125 -4.984375 C 3.128906 -4.984375 2.78125 -4.828125 2.53125 -4.515625 C 2.28125 -4.210938 2.15625 -3.738281 2.15625 -3.09375 C 2.15625 -2.457031 2.28125 -1.984375 2.53125 -1.671875 C 2.789062 -1.359375 3.148438 -1.203125 3.609375 -1.203125 C 3.941406 -1.203125 4.222656 -1.289062 4.453125 -1.46875 C 4.691406 -1.65625 4.863281 -1.914062 4.96875 -2.25 L 5.09375 -2.265625 L 6.1875 -1.65625 C 6.03125 -1.132812 5.738281 -0.707031 5.3125 -0.375 C 4.894531 -0.0390625 4.328125 0.125 3.609375 0.125 Z M 3.609375 0.125 "/></g></g></g><g fill="#004aad" fill-opacity="1"><g transform="translate(59.333839, 58.979565)"><g><path d="M 6.125 -2.75 L 2.140625 -2.75 C 2.179688 -2.207031 2.332031 -1.8125 2.59375 -1.5625 C 2.863281 -1.320312 3.222656 -1.203125 3.671875 -1.203125 C 4.023438 -1.203125 4.3125 -1.265625 4.53125 -1.390625 C 4.757812 -1.523438 4.941406 -1.726562 5.078125 -2 L 5.1875 -2 L 6.21875 -1.34375 C 6.019531 -0.90625 5.710938 -0.550781 5.296875 -0.28125 C 4.890625 -0.0078125 4.347656 0.125 3.671875 0.125 C 3.035156 0.125 2.484375 0.00390625 2.015625 -0.234375 C 1.546875 -0.484375 1.1875 -0.847656 0.9375 -1.328125 C 0.6875 -1.816406 0.5625 -2.40625 0.5625 -3.09375 C 0.5625 -3.800781 0.691406 -4.394531 0.953125 -4.875 C 1.222656 -5.351562 1.582031 -5.710938 2.03125 -5.953125 C 2.488281 -6.191406 3 -6.3125 3.5625 -6.3125 C 4.4375 -6.3125 5.101562 -6.078125 5.5625 -5.609375 C 6.03125 -5.148438 6.265625 -4.472656 6.265625 -3.578125 C 6.265625 -3.242188 6.253906 -2.988281 6.234375 -2.8125 Z M 4.78125 -3.75 C 4.769531 -4.21875 4.660156 -4.5625 4.453125 -4.78125 C 4.253906 -5 3.957031 -5.109375 3.5625 -5.109375 C 2.769531 -5.109375 2.304688 -4.65625 2.171875 -3.75 Z M 4.78125 -3.75 "/></g></g></g><g fill="#004aad" fill-opacity="1"><g transform="translate(5.697177, 17.6)"><g><path d="M 4.875 0 L 2.921875 0 L 0.140625 -8.203125 L 1.875 -8.203125 L 3.859375 -2.09375 L 4 -2.09375 L 5.96875 -8.203125 L 7.640625 -8.203125 Z M 4.875 0 "/></g></g></g><g fill="#004aad" fill-opacity="1"><g transform="translate(13.488475, 17.6)"><g><path d="M 2.421875 0.125 C 2.015625 0.125 1.664062 0.0507812 1.375 -0.09375 C 1.082031 -0.238281 0.859375 -0.453125 0.703125 -0.734375 C 0.546875 -1.023438 0.46875 -1.367188 0.46875 -1.765625 C 0.46875 -2.128906 0.546875 -2.4375 0.703125 -2.6875 C 0.859375 -2.9375 1.101562 -3.140625 1.4375 -3.296875 C 1.769531 -3.453125 2.203125 -3.578125 2.734375 -3.671875 C 3.097656 -3.722656 3.375 -3.785156 3.5625 -3.859375 C 3.757812 -3.929688 3.890625 -4.007812 3.953125 -4.09375 C 4.023438 -4.1875 4.0625 -4.304688 4.0625 -4.453125 C 4.0625 -4.648438 3.992188 -4.800781 3.859375 -4.90625 C 3.722656 -5.007812 3.492188 -5.0625 3.171875 -5.0625 C 2.828125 -5.0625 2.5 -4.984375 2.1875 -4.828125 C 1.875 -4.671875 1.601562 -4.46875 1.375 -4.21875 L 1.265625 -4.21875 L 0.609375 -5.203125 C 0.921875 -5.554688 1.300781 -5.828125 1.75 -6.015625 C 2.207031 -6.210938 2.707031 -6.3125 3.25 -6.3125 C 4.0625 -6.3125 4.648438 -6.132812 5.015625 -5.78125 C 5.390625 -5.4375 5.578125 -4.945312 5.578125 -4.3125 L 5.578125 -1.625 C 5.578125 -1.34375 5.695312 -1.203125 5.9375 -1.203125 C 6.03125 -1.203125 6.125 -1.21875 6.21875 -1.25 L 6.296875 -1.234375 L 6.40625 -0.140625 C 6.320312 -0.0859375 6.203125 -0.0390625 6.046875 0 C 5.890625 0.03125 5.722656 0.046875 5.546875 0.046875 C 5.171875 0.046875 4.878906 -0.0195312 4.671875 -0.15625 C 4.460938 -0.300781 4.316406 -0.53125 4.234375 -0.84375 L 4.109375 -0.84375 C 3.804688 -0.195312 3.242188 0.125 2.421875 0.125 Z M 2.90625 -1.046875 C 3.269531 -1.046875 3.554688 -1.164062 3.765625 -1.40625 C 3.984375 -1.644531 4.09375 -1.984375 4.09375 -2.421875 L 4.09375 -3.046875 L 3.984375 -3.0625 C 3.890625 -2.988281 3.765625 -2.925781 3.609375 -2.875 C 3.460938 -2.820312 3.25 -2.773438 2.96875 -2.734375 C 2.625 -2.671875 2.378906 -2.570312 2.234375 -2.4375 C 2.085938 -2.300781 2.015625 -2.109375 2.015625 -1.859375 C 2.015625 -1.585938 2.09375 -1.382812 2.25 -1.25 C 2.40625 -1.113281 2.625 -1.046875 2.90625 -1.046875 Z M 2.90625 -1.046875 "/></g></g></g><g fill="#004aad" fill-opacity="1"><g transform="translate(20.016779, 17.6)"><g><path d="M 2.890625 0.125 C 2.472656 0.125 2.085938 0.0703125 1.734375 -0.03125 C 1.378906 -0.132812 1.078125 -0.269531 0.828125 -0.4375 C 0.578125 -0.613281 0.394531 -0.8125 0.28125 -1.03125 L 1.140625 -1.96875 L 1.265625 -1.96875 C 1.472656 -1.695312 1.71875 -1.488281 2 -1.34375 C 2.28125 -1.207031 2.582031 -1.140625 2.90625 -1.140625 C 3.207031 -1.140625 3.4375 -1.191406 3.59375 -1.296875 C 3.75 -1.410156 3.828125 -1.566406 3.828125 -1.765625 C 3.828125 -1.921875 3.769531 -2.050781 3.65625 -2.15625 C 3.550781 -2.269531 3.375 -2.359375 3.125 -2.421875 L 2.296875 -2.609375 C 1.679688 -2.753906 1.234375 -2.976562 0.953125 -3.28125 C 0.671875 -3.582031 0.53125 -3.96875 0.53125 -4.4375 C 0.53125 -4.820312 0.628906 -5.15625 0.828125 -5.4375 C 1.023438 -5.71875 1.300781 -5.929688 1.65625 -6.078125 C 2.019531 -6.234375 2.4375 -6.3125 2.90625 -6.3125 C 3.46875 -6.3125 3.929688 -6.226562 4.296875 -6.0625 C 4.660156 -5.90625 4.945312 -5.691406 5.15625 -5.421875 L 4.328125 -4.53125 L 4.21875 -4.53125 C 4.039062 -4.71875 3.84375 -4.859375 3.625 -4.953125 C 3.414062 -5.046875 3.175781 -5.09375 2.90625 -5.09375 C 2.289062 -5.09375 1.984375 -4.898438 1.984375 -4.515625 C 1.984375 -4.347656 2.039062 -4.210938 2.15625 -4.109375 C 2.269531 -4.015625 2.472656 -3.9375 2.765625 -3.875 L 3.53125 -3.703125 C 4.15625 -3.566406 4.613281 -3.347656 4.90625 -3.046875 C 5.195312 -2.753906 5.34375 -2.359375 5.34375 -1.859375 C 5.34375 -1.460938 5.242188 -1.113281 5.046875 -0.8125 C 4.847656 -0.519531 4.566406 -0.289062 4.203125 -0.125 C 3.835938 0.0390625 3.398438 0.125 2.890625 0.125 Z M 2.890625 0.125 "/></g></g></g><g fill="#004aad" fill-opacity="1"><g transform="translate(25.725538, 17.6)"><g><path d="M 4.265625 -1.484375 L 4.671875 -0.328125 C 4.503906 -0.191406 4.289062 -0.0820312 4.03125 0 C 3.78125 0.0820312 3.492188 0.125 3.171875 0.125 C 2.503906 0.125 1.992188 -0.0546875 1.640625 -0.421875 C 1.296875 -0.796875 1.125 -1.328125 1.125 -2.015625 L 1.125 -4.96875 L 0.1875 -4.96875 L 0.1875 -6.203125 L 1.125 -6.203125 L 1.125 -7.40625 L 2.6875 -7.65625 L 2.6875 -6.203125 L 4.4375 -6.203125 L 4.4375 -4.96875 L 2.6875 -4.96875 L 2.6875 -2.140625 C 2.6875 -1.828125 2.75 -1.597656 2.875 -1.453125 C 3 -1.316406 3.1875 -1.25 3.4375 -1.25 C 3.707031 -1.25 3.945312 -1.328125 4.15625 -1.484375 Z M 4.265625 -1.484375 "/></g></g></g><g fill="#004aad" fill-opacity="1"><g transform="translate(30.536165, 17.6)"><g/></g></g><g fill="#004aad" fill-opacity="1"><g transform="translate(33.247407, 17.6)"><g><path d="M 4.015625 -8.203125 C 5.347656 -8.203125 6.363281 -7.859375 7.0625 -7.171875 C 7.769531 -6.484375 8.125 -5.460938 8.125 -4.109375 C 8.125 -2.753906 7.769531 -1.726562 7.0625 -1.03125 C 6.363281 -0.34375 5.347656 0 4.015625 0 L 1.0625 0 L 1.0625 -8.203125 Z M 3.921875 -1.359375 C 4.765625 -1.359375 5.394531 -1.570312 5.8125 -2 C 6.238281 -2.4375 6.453125 -3.140625 6.453125 -4.109375 C 6.453125 -5.066406 6.238281 -5.757812 5.8125 -6.1875 C 5.394531 -6.625 4.765625 -6.84375 3.921875 -6.84375 L 2.6875 -6.84375 L 2.6875 -1.359375 Z M 3.921875 -1.359375 "/></g></g></g><g fill="#004aad" fill-opacity="1"><g transform="translate(42.021042, 17.6)"><g><path d="M 2.421875 0.125 C 2.015625 0.125 1.664062 0.0507812 1.375 -0.09375 C 1.082031 -0.238281 0.859375 -0.453125 0.703125 -0.734375 C 0.546875 -1.023438 0.46875 -1.367188 0.46875 -1.765625 C 0.46875 -2.128906 0.546875 -2.4375 0.703125 -2.6875 C 0.859375 -2.9375 1.101562 -3.140625 1.4375 -3.296875 C 1.769531 -3.453125 2.203125 -3.578125 2.734375 -3.671875 C 3.097656 -3.722656 3.375 -3.785156 3.5625 -3.859375 C 3.757812 -3.929688 3.890625 -4.007812 3.953125 -4.09375 C 4.023438 -4.1875 4.0625 -4.304688 4.0625 -4.453125 C 4.0625 -4.648438 3.992188 -4.800781 3.859375 -4.90625 C 3.722656 -5.007812 3.492188 -5.0625 3.171875 -5.0625 C 2.828125 -5.0625 2.5 -4.984375 2.1875 -4.828125 C 1.875 -4.671875 1.601562 -4.46875 1.375 -4.21875 L 1.265625 -4.21875 L 0.609375 -5.203125 C 0.921875 -5.554688 1.300781 -5.828125 1.75 -6.015625 C 2.207031 -6.210938 2.707031 -6.3125 3.25 -6.3125 C 4.0625 -6.3125 4.648438 -6.132812 5.015625 -5.78125 C 5.390625 -5.4375 5.578125 -4.945312 5.578125 -4.3125 L 5.578125 -1.625 C 5.578125 -1.34375 5.695312 -1.203125 5.9375 -1.203125 C 6.03125 -1.203125 6.125 -1.21875 6.21875 -1.25 L 6.296875 -1.234375 L 6.40625 -0.140625 C 6.320312 -0.0859375 6.203125 -0.0390625 6.046875 0 C 5.890625 0.03125 5.722656 0.046875 5.546875 0.046875 C 5.171875 0.046875 4.878906 -0.0195312 4.671875 -0.15625 C 4.460938 -0.300781 4.316406 -0.53125 4.234375 -0.84375 L 4.109375 -0.84375 C 3.804688 -0.195312 3.242188 0.125 2.421875 0.125 Z M 2.90625 -1.046875 C 3.269531 -1.046875 3.554688 -1.164062 3.765625 -1.40625 C 3.984375 -1.644531 4.09375 -1.984375 4.09375 -2.421875 L 4.09375 -3.046875 L 3.984375 -3.0625 C 3.890625 -2.988281 3.765625 -2.925781 3.609375 -2.875 C 3.460938 -2.820312 3.25 -2.773438 2.96875 -2.734375 C 2.625 -2.671875 2.378906 -2.570312 2.234375 -2.4375 C 2.085938 -2.300781 2.015625 -2.109375 2.015625 -1.859375 C 2.015625 -1.585938 2.09375 -1.382812 2.25 -1.25 C 2.40625 -1.113281 2.625 -1.046875 2.90625 -1.046875 Z M 2.90625 -1.046875 "/></g></g></g><g fill="#004aad" fill-opacity="1"><g transform="translate(48.549347, 17.6)"><g><path d="M 4.265625 -1.484375 L 4.671875 -0.328125 C 4.503906 -0.191406 4.289062 -0.0820312 4.03125 0 C 3.78125 0.0820312 3.492188 0.125 3.171875 0.125 C 2.503906 0.125 1.992188 -0.0546875 1.640625 -0.421875 C 1.296875 -0.796875 1.125 -1.328125 1.125 -2.015625 L 1.125 -4.96875 L 0.1875 -4.96875 L 0.1875 -6.203125 L 1.125 -6.203125 L 1.125 -7.40625 L 2.6875 -7.65625 L 2.6875 -6.203125 L 4.4375 -6.203125 L 4.4375 -4.96875 L 2.6875 -4.96875 L 2.6875 -2.140625 C 2.6875 -1.828125 2.75 -1.597656 2.875 -1.453125 C 3 -1.316406 3.1875 -1.25 3.4375 -1.25 C 3.707031 -1.25 3.945312 -1.328125 4.15625 -1.484375 Z M 4.265625 -1.484375 "/></g></g></g><g fill="#004aad" fill-opacity="1"><g transform="translate(53.359973, 17.6)"><g><path d="M 2.421875 0.125 C 2.015625 0.125 1.664062 0.0507812 1.375 -0.09375 C 1.082031 -0.238281 0.859375 -0.453125 0.703125 -0.734375 C 0.546875 -1.023438 0.46875 -1.367188 0.46875 -1.765625 C 0.46875 -2.128906 0.546875 -2.4375 0.703125 -2.6875 C 0.859375 -2.9375 1.101562 -3.140625 1.4375 -3.296875 C 1.769531 -3.453125 2.203125 -3.578125 2.734375 -3.671875 C 3.097656 -3.722656 3.375 -3.785156 3.5625 -3.859375 C 3.757812 -3.929688 3.890625 -4.007812 3.953125 -4.09375 C 4.023438 -4.1875 4.0625 -4.304688 4.0625 -4.453125 C 4.0625 -4.648438 3.992188 -4.800781 3.859375 -4.90625 C 3.722656 -5.007812 3.492188 -5.0625 3.171875 -5.0625 C 2.828125 -5.0625 2.5 -4.984375 2.1875 -4.828125 C 1.875 -4.671875 1.601562 -4.46875 1.375 -4.21875 L 1.265625 -4.21875 L 0.609375 -5.203125 C 0.921875 -5.554688 1.300781 -5.828125 1.75 -6.015625 C 2.207031 -6.210938 2.707031 -6.3125 3.25 -6.3125 C 4.0625 -6.3125 4.648438 -6.132812 5.015625 -5.78125 C 5.390625 -5.4375 5.578125 -4.945312 5.578125 -4.3125 L 5.578125 -1.625 C 5.578125 -1.34375 5.695312 -1.203125 5.9375 -1.203125 C 6.03125 -1.203125 6.125 -1.21875 6.21875 -1.25 L 6.296875 -1.234375 L 6.40625 -0.140625 C 6.320312 -0.0859375 6.203125 -0.0390625 6.046875 0 C 5.890625 0.03125 5.722656 0.046875 5.546875 0.046875 C 5.171875 0.046875 4.878906 -0.0195312 4.671875 -0.15625 C 4.460938 -0.300781 4.316406 -0.53125 4.234375 -0.84375 L 4.109375 -0.84375 C 3.804688 -0.195312 3.242188 0.125 2.421875 0.125 Z M 2.90625 -1.046875 C 3.269531 -1.046875 3.554688 -1.164062 3.765625 -1.40625 C 3.984375 -1.644531 4.09375 -1.984375 4.09375 -2.421875 L 4.09375 -3.046875 L 3.984375 -3.0625 C 3.890625 -2.988281 3.765625 -2.925781 3.609375 -2.875 C 3.460938 -2.820312 3.25 -2.773438 2.96875 -2.734375 C 2.625 -2.671875 2.378906 -2.570312 2.234375 -2.4375 C 2.085938 -2.300781 2.015625 -2.109375 2.015625 -1.859375 C 2.015625 -1.585938 2.09375 -1.382812 2.25 -1.25 C 2.40625 -1.113281 2.625 -1.046875 2.90625 -1.046875 Z M 2.90625 -1.046875 "/></g></g></g><g fill="#00bf63" fill-opacity="1"><g transform="translate(302.597164, 40.95388)"><g><path d="M 5.140625 -9.953125 C 5.847656 -9.953125 6.453125 -9.820312 6.953125 -9.5625 C 7.460938 -9.300781 7.847656 -8.9375 8.109375 -8.46875 C 8.367188 -8 8.5 -7.453125 8.5 -6.828125 C 8.5 -6.203125 8.367188 -5.65625 8.109375 -5.1875 C 7.847656 -4.71875 7.460938 -4.351562 6.953125 -4.09375 C 6.453125 -3.832031 5.847656 -3.703125 5.140625 -3.703125 L 3.265625 -3.703125 L 3.265625 0 L 1.296875 0 L 1.296875 -9.953125 Z M 4.875 -5.265625 C 5.96875 -5.265625 6.515625 -5.785156 6.515625 -6.828125 C 6.515625 -7.867188 5.96875 -8.390625 4.875 -8.390625 L 3.265625 -8.390625 L 3.265625 -5.265625 Z M 4.875 -5.265625 "/></g></g></g><g fill="#00bf63" fill-opacity="1"><g transform="translate(311.684733, 40.95388)"><g><path d="M 1.078125 0 L 1.078125 -7.5 L 2.90625 -7.5 L 2.90625 -6.390625 L 3.0625 -6.359375 C 3.238281 -6.773438 3.472656 -7.082031 3.765625 -7.28125 C 4.066406 -7.476562 4.425781 -7.578125 4.84375 -7.578125 C 5.269531 -7.578125 5.59375 -7.503906 5.8125 -7.359375 L 5.5 -5.734375 L 5.359375 -5.703125 C 5.234375 -5.753906 5.113281 -5.789062 5 -5.8125 C 4.882812 -5.832031 4.75 -5.84375 4.59375 -5.84375 C 4.0625 -5.84375 3.65625 -5.65625 3.375 -5.28125 C 3.101562 -4.914062 2.96875 -4.328125 2.96875 -3.515625 L 2.96875 0 Z M 1.078125 0 "/></g></g></g><g fill="#00bf63" fill-opacity="1"><g transform="translate(317.568526, 40.95388)"><g><path d="M 7.421875 -3.328125 L 2.59375 -3.328125 C 2.644531 -2.671875 2.828125 -2.191406 3.140625 -1.890625 C 3.460938 -1.597656 3.898438 -1.453125 4.453125 -1.453125 C 4.878906 -1.453125 5.226562 -1.53125 5.5 -1.6875 C 5.769531 -1.851562 5.984375 -2.097656 6.140625 -2.421875 L 6.28125 -2.421875 L 7.546875 -1.625 C 7.296875 -1.101562 6.921875 -0.675781 6.421875 -0.34375 C 5.929688 -0.0195312 5.273438 0.140625 4.453125 0.140625 C 3.671875 0.140625 3 -0.00390625 2.4375 -0.296875 C 1.875 -0.585938 1.4375 -1.023438 1.125 -1.609375 C 0.820312 -2.191406 0.671875 -2.90625 0.671875 -3.75 C 0.671875 -4.601562 0.832031 -5.320312 1.15625 -5.90625 C 1.476562 -6.488281 1.910156 -6.925781 2.453125 -7.21875 C 3.003906 -7.507812 3.625 -7.65625 4.3125 -7.65625 C 5.375 -7.65625 6.1875 -7.375 6.75 -6.8125 C 7.320312 -6.25 7.609375 -5.421875 7.609375 -4.328125 C 7.609375 -3.929688 7.59375 -3.625 7.5625 -3.40625 Z M 5.796875 -4.546875 C 5.773438 -5.117188 5.640625 -5.535156 5.390625 -5.796875 C 5.148438 -6.054688 4.789062 -6.1875 4.3125 -6.1875 C 3.363281 -6.1875 2.804688 -5.640625 2.640625 -4.546875 Z M 5.796875 -4.546875 "/></g></g></g><g fill="#00bf63" fill-opacity="1"><g transform="translate(325.724212, 40.95388)"><g><path d="M 3.703125 0.140625 C 3.109375 0.140625 2.582031 0 2.125 -0.28125 C 1.675781 -0.570312 1.320312 -1.007812 1.0625 -1.59375 C 0.800781 -2.175781 0.671875 -2.894531 0.671875 -3.75 C 0.671875 -4.601562 0.800781 -5.320312 1.0625 -5.90625 C 1.332031 -6.488281 1.703125 -6.925781 2.171875 -7.21875 C 2.640625 -7.507812 3.179688 -7.65625 3.796875 -7.65625 C 4.265625 -7.65625 4.671875 -7.570312 5.015625 -7.40625 C 5.359375 -7.25 5.648438 -7 5.890625 -6.65625 L 6.03125 -6.6875 L 6.03125 -10.515625 L 7.921875 -10.515625 L 7.921875 0 L 6.03125 0 L 6.03125 -0.96875 L 5.890625 -1 C 5.679688 -0.644531 5.394531 -0.363281 5.03125 -0.15625 C 4.664062 0.0390625 4.222656 0.140625 3.703125 0.140625 Z M 4.328125 -1.453125 C 4.859375 -1.453125 5.273438 -1.640625 5.578125 -2.015625 C 5.890625 -2.398438 6.046875 -2.976562 6.046875 -3.75 C 6.046875 -4.519531 5.890625 -5.09375 5.578125 -5.46875 C 5.273438 -5.851562 4.859375 -6.046875 4.328125 -6.046875 C 3.765625 -6.046875 3.335938 -5.859375 3.046875 -5.484375 C 2.753906 -5.117188 2.609375 -4.539062 2.609375 -3.75 C 2.609375 -2.957031 2.753906 -2.375 3.046875 -2 C 3.335938 -1.632812 3.765625 -1.453125 4.328125 -1.453125 Z M 4.328125 -1.453125 "/></g></g></g><g fill="#00bf63" fill-opacity="1"><g transform="translate(334.716553, 40.95388)"><g><path d="M 2.015625 -8.40625 C 1.679688 -8.40625 1.40625 -8.507812 1.1875 -8.71875 C 0.976562 -8.925781 0.875 -9.191406 0.875 -9.515625 C 0.875 -9.835938 0.976562 -10.097656 1.1875 -10.296875 C 1.40625 -10.503906 1.679688 -10.609375 2.015625 -10.609375 C 2.242188 -10.609375 2.445312 -10.5625 2.625 -10.46875 C 2.800781 -10.375 2.9375 -10.242188 3.03125 -10.078125 C 3.132812 -9.910156 3.1875 -9.722656 3.1875 -9.515625 C 3.1875 -9.296875 3.132812 -9.101562 3.03125 -8.9375 C 2.9375 -8.769531 2.800781 -8.640625 2.625 -8.546875 C 2.445312 -8.453125 2.242188 -8.40625 2.015625 -8.40625 Z M 1.078125 0 L 1.078125 -7.5 L 2.96875 -7.5 L 2.96875 0 Z M 1.078125 0 "/></g></g></g><g fill="#00bf63" fill-opacity="1"><g transform="translate(338.756984, 40.95388)"><g><path d="M 4.375 0.140625 C 3.644531 0.140625 3 -0.0078125 2.4375 -0.3125 C 1.882812 -0.613281 1.453125 -1.054688 1.140625 -1.640625 C 0.828125 -2.222656 0.671875 -2.925781 0.671875 -3.75 C 0.671875 -4.570312 0.828125 -5.273438 1.140625 -5.859375 C 1.453125 -6.453125 1.882812 -6.898438 2.4375 -7.203125 C 2.988281 -7.503906 3.625 -7.65625 4.34375 -7.65625 C 5.925781 -7.65625 6.941406 -7.078125 7.390625 -5.921875 L 6.09375 -5 L 5.953125 -5 C 5.796875 -5.351562 5.59375 -5.613281 5.34375 -5.78125 C 5.09375 -5.957031 4.757812 -6.046875 4.34375 -6.046875 C 3.800781 -6.046875 3.375 -5.859375 3.0625 -5.484375 C 2.757812 -5.109375 2.609375 -4.53125 2.609375 -3.75 C 2.609375 -2.976562 2.757812 -2.398438 3.0625 -2.015625 C 3.375 -1.640625 3.8125 -1.453125 4.375 -1.453125 C 4.78125 -1.453125 5.125 -1.5625 5.40625 -1.78125 C 5.695312 -2 5.898438 -2.316406 6.015625 -2.734375 L 6.171875 -2.75 L 7.5 -2.015625 C 7.3125 -1.378906 6.957031 -0.859375 6.4375 -0.453125 C 5.925781 -0.0546875 5.238281 0.140625 4.375 0.140625 Z M 4.375 0.140625 "/></g></g></g><g fill="#00bf63" fill-opacity="1"><g transform="translate(346.490941, 40.95388)"><g><path d="M 5.171875 -1.796875 L 5.671875 -0.390625 C 5.460938 -0.222656 5.203125 -0.09375 4.890625 0 C 4.585938 0.09375 4.242188 0.140625 3.859375 0.140625 C 3.046875 0.140625 2.425781 -0.078125 2 -0.515625 C 1.582031 -0.960938 1.375 -1.609375 1.375 -2.453125 L 1.375 -6.015625 L 0.21875 -6.015625 L 0.21875 -7.515625 L 1.375 -7.515625 L 1.375 -8.96875 L 3.25 -9.28125 L 3.25 -7.515625 L 5.390625 -7.515625 L 5.390625 -6.015625 L 3.25 -6.015625 L 3.25 -2.59375 C 3.25 -2.21875 3.328125 -1.941406 3.484375 -1.765625 C 3.640625 -1.597656 3.863281 -1.515625 4.15625 -1.515625 C 4.488281 -1.515625 4.78125 -1.609375 5.03125 -1.796875 Z M 5.171875 -1.796875 "/></g></g></g><g fill="#00bf63" fill-opacity="1"><g transform="translate(352.320318, 40.95388)"><g><path d="M 2.015625 -8.40625 C 1.679688 -8.40625 1.40625 -8.507812 1.1875 -8.71875 C 0.976562 -8.925781 0.875 -9.191406 0.875 -9.515625 C 0.875 -9.835938 0.976562 -10.097656 1.1875 -10.296875 C 1.40625 -10.503906 1.679688 -10.609375 2.015625 -10.609375 C 2.242188 -10.609375 2.445312 -10.5625 2.625 -10.46875 C 2.800781 -10.375 2.9375 -10.242188 3.03125 -10.078125 C 3.132812 -9.910156 3.1875 -9.722656 3.1875 -9.515625 C 3.1875 -9.296875 3.132812 -9.101562 3.03125 -8.9375 C 2.9375 -8.769531 2.800781 -8.640625 2.625 -8.546875 C 2.445312 -8.453125 2.242188 -8.40625 2.015625 -8.40625 Z M 1.078125 0 L 1.078125 -7.5 L 2.96875 -7.5 L 2.96875 0 Z M 1.078125 0 "/></g></g></g><g fill="#00bf63" fill-opacity="1"><g transform="translate(356.360749, 40.95388)"><g><path d="M 4.359375 0.140625 C 3.628906 0.140625 2.984375 -0.0078125 2.421875 -0.3125 C 1.867188 -0.613281 1.4375 -1.054688 1.125 -1.640625 C 0.820312 -2.222656 0.671875 -2.925781 0.671875 -3.75 C 0.671875 -4.570312 0.820312 -5.273438 1.125 -5.859375 C 1.4375 -6.453125 1.867188 -6.898438 2.421875 -7.203125 C 2.984375 -7.503906 3.628906 -7.65625 4.359375 -7.65625 C 5.097656 -7.65625 5.742188 -7.503906 6.296875 -7.203125 C 6.847656 -6.898438 7.28125 -6.453125 7.59375 -5.859375 C 7.90625 -5.273438 8.0625 -4.570312 8.0625 -3.75 C 8.0625 -2.925781 7.90625 -2.222656 7.59375 -1.640625 C 7.28125 -1.054688 6.847656 -0.613281 6.296875 -0.3125 C 5.742188 -0.0078125 5.097656 0.140625 4.359375 0.140625 Z M 4.359375 -1.453125 C 5.523438 -1.453125 6.109375 -2.21875 6.109375 -3.75 C 6.109375 -4.539062 5.957031 -5.117188 5.65625 -5.484375 C 5.363281 -5.859375 4.929688 -6.046875 4.359375 -6.046875 C 3.191406 -6.046875 2.609375 -5.28125 2.609375 -3.75 C 2.609375 -2.21875 3.191406 -1.453125 4.359375 -1.453125 Z M 4.359375 -1.453125 "/></g></g></g><g fill="#00bf63" fill-opacity="1"><g transform="translate(365.081007, 40.95388)"><g><path d="M 1.078125 0 L 1.078125 -7.5 L 2.890625 -7.5 L 2.890625 -6.40625 L 3.03125 -6.375 C 3.5 -7.226562 4.257812 -7.65625 5.3125 -7.65625 C 6.175781 -7.65625 6.8125 -7.414062 7.21875 -6.9375 C 7.625 -6.46875 7.828125 -5.78125 7.828125 -4.875 L 7.828125 0 L 5.9375 0 L 5.9375 -4.640625 C 5.9375 -5.140625 5.835938 -5.5 5.640625 -5.71875 C 5.441406 -5.945312 5.125 -6.0625 4.6875 -6.0625 C 4.144531 -6.0625 3.722656 -5.882812 3.421875 -5.53125 C 3.117188 -5.1875 2.96875 -4.640625 2.96875 -3.890625 L 2.96875 0 Z M 1.078125 0 "/></g></g></g><path stroke-linecap="butt" transform="matrix(0.749994, 0.00309268, -0.00309268, 0.749994, 75.109981, 34.356874)" fill="none" stroke-linejoin="miter" d="M 0.00222265 1.998135 L 71.002852 2.002234 " stroke="#000000" stroke-width="4" stroke-opacity="1" stroke-miterlimit="4"/><path stroke-linecap="round" transform="matrix(0.749994, 0.00309268, -0.00309268, 0.749994, 75.109981, 34.356874)" fill="none" stroke-linejoin="round" d="M 62.99886 -4.001271 L 71.002852 2.002234 L 63.001469 7.998821 " stroke="#000000" stroke-width="4" stroke-opacity="1" stroke-miterlimit="4"/></svg>